<svg width="121" height="121" viewBox="0 0 121 121" fill="none" xmlns="http://www.w3.org/2000/svg">
<g opacity="0.5" filter="url(#filter0_d)">
<circle cx="60.5" cy="45.5" r="40.5" fill="white"/>
</g>
<g filter="url(#filter1_d)">
<circle cx="60.5" cy="45.5" r="32.5" fill="white"/>
</g>
<path d="M75.927 46.3953C76.6202 45.4794 77.0039 44.3571 77.0039 43.1895C77.0039 41.3369 75.9683 39.5834 74.3014 38.6055C73.8723 38.3538 73.3837 38.2213 72.8862 38.2218H62.9921L63.2396 33.151C63.2974 31.9255 62.8642 30.762 62.0225 29.8749C61.6094 29.4377 61.1111 29.0898 60.5582 28.8528C60.0054 28.6158 59.4098 28.4946 58.8083 28.4969C56.6628 28.4969 54.7649 29.9409 54.1955 32.0081L50.6513 44.8399H45.3164C44.5861 44.8399 43.9961 45.4299 43.9961 46.1602V61.1787C43.9961 61.909 44.5861 62.499 45.3164 62.499H70.1259C70.5055 62.499 70.8768 62.4248 71.2193 62.2762C73.1833 61.4387 74.4499 59.5201 74.4499 57.3911C74.4499 56.8712 74.3757 56.3596 74.2271 55.8645C74.9203 54.9485 75.304 53.8262 75.304 52.6586C75.304 52.1387 75.2297 51.6271 75.0812 51.132C75.7744 50.216 76.1581 49.0937 76.1581 47.9261C76.1498 47.4062 76.0756 46.8905 75.927 46.3953ZM46.9668 59.5283V47.8106H50.3088V59.5283H46.9668ZM73.2245 44.9636L72.3209 45.7476L72.8944 46.7956C73.0834 47.1408 73.1814 47.5284 73.1791 47.922C73.1791 48.6027 72.8821 49.2505 72.3704 49.6961L71.4668 50.4801L72.0404 51.5281C72.2293 51.8733 72.3273 52.2609 72.325 52.6545C72.325 53.3352 72.028 53.983 71.5164 54.4286L70.6128 55.2126L71.1863 56.2606C71.3752 56.6058 71.4732 56.9934 71.471 57.3869C71.471 58.3112 70.9263 59.1446 70.0846 59.5242H52.9495V47.6785L57.0548 32.8044C57.1607 32.4231 57.3879 32.0868 57.7021 31.8463C58.0163 31.6058 58.4003 31.4743 58.796 31.4717C59.1095 31.4717 59.419 31.5625 59.6666 31.7481C60.075 32.0534 60.2937 32.5156 60.2689 33.0065L59.8729 41.1925H72.8449C73.5793 41.6422 74.0332 42.4014 74.0332 43.1895C74.0332 43.8702 73.7361 44.5139 73.2245 44.9636Z" fill="url(#paint0_radial)"/>
<defs>
<filter id="filter0_d" x="0" y="0" width="121" height="121" filterUnits="userSpaceOnUse" color-interpolation-filters="sRGB">
<feFlood flood-opacity="0" result="BackgroundImageFix"/>
<feColorMatrix in="SourceAlpha" type="matrix" values="0 0 0 0 0 0 0 0 0 0 0 0 0 0 0 0 0 0 127 0"/>
<feOffset dy="15"/>
<feGaussianBlur stdDeviation="10"/>
<feColorMatrix type="matrix" values="0 0 0 0 0 0 0 0 0 0 0 0 0 0 0 0 0 0 0.05 0"/>
<feBlend mode="normal" in2="BackgroundImageFix" result="effect1_dropShadow"/>
<feBlend mode="normal" in="SourceGraphic" in2="effect1_dropShadow" result="shape"/>
</filter>
<filter id="filter1_d" x="8" y="8" width="105" height="105" filterUnits="userSpaceOnUse" color-interpolation-filters="sRGB">
<feFlood flood-opacity="0" result="BackgroundImageFix"/>
<feColorMatrix in="SourceAlpha" type="matrix" values="0 0 0 0 0 0 0 0 0 0 0 0 0 0 0 0 0 0 127 0"/>
<feOffset dy="15"/>
<feGaussianBlur stdDeviation="10"/>
<feColorMatrix type="matrix" values="0 0 0 0 0 0 0 0 0 0 0 0 0 0 0 0 0 0 0.05 0"/>
<feBlend mode="normal" in2="BackgroundImageFix" result="effect1_dropShadow"/>
<feBlend mode="normal" in="SourceGraphic" in2="effect1_dropShadow" result="shape"/>
</filter>
<radialGradient id="paint0_radial" cx="0" cy="0" r="1" gradientUnits="userSpaceOnUse" gradientTransform="translate(60.5 20.2539) rotate(90) scale(30.7394 19.0594)">
<stop stop-color="#FD83BD"/>
<stop offset="1" stop-color="#FF4B65"/>
</radialGradient>
</defs>
</svg>
