<svg width="48" height="48" viewBox="0 0 48 48" fill="none" xmlns="http://www.w3.org/2000/svg">
<path d="M22.938 34.0621C22.7983 33.9227 22.6875 33.7572 22.6119 33.575C22.5362 33.3927 22.4973 33.1974 22.4973 33.0001C22.4973 32.8028 22.5362 32.6074 22.6119 32.4252C22.6875 32.2429 22.7983 32.0774 22.938 31.9381L29.3785 25.5H15C14.6022 25.5 14.2206 25.342 13.9393 25.0607C13.658 24.7794 13.5 24.3978 13.5 24C13.5 23.6022 13.658 23.2206 13.9393 22.9393C14.2206 22.658 14.6022 22.5 15 22.5H29.3784L22.938 16.0621C22.7985 15.9226 22.6879 15.757 22.6124 15.5748C22.5369 15.3926 22.4981 15.1973 22.4981 15.0001C22.4981 14.8028 22.5369 14.6075 22.6124 14.4253C22.6879 14.2431 22.7985 14.0775 22.938 13.9381C23.0775 13.7986 23.243 13.688 23.4252 13.6125C23.6075 13.537 23.8028 13.4982 24 13.4982C24.1972 13.4982 24.3925 13.537 24.5747 13.6125C24.757 13.688 24.9225 13.7986 25.062 13.9381L34.062 22.9381C34.2017 23.0774 34.3125 23.2429 34.3881 23.4252C34.4638 23.6074 34.5027 23.8028 34.5027 24.0001C34.5027 24.1974 34.4638 24.3927 34.3881 24.575C34.3125 24.7572 34.2017 24.9227 34.062 25.0621L25.062 34.0621C24.9227 34.2018 24.7571 34.3126 24.5749 34.3882C24.3927 34.4638 24.1973 34.5027 24 34.5027C23.8027 34.5027 23.6073 34.4638 23.4251 34.3882C23.2429 34.3126 23.0773 34.2018 22.938 34.0621Z" fill="white"/>
<path fill-rule="evenodd" clip-rule="evenodd" d="M24 48C30.3652 48 36.4697 45.4714 40.9706 40.9706C45.4714 36.4697 48 30.3652 48 24C48 17.6348 45.4714 11.5303 40.9706 7.02944C36.4697 2.52856 30.3652 0 24 0C17.6348 0 11.5303 2.52856 7.02944 7.02944C2.52856 11.5303 0 17.6348 0 24C0 30.3652 2.52856 36.4697 7.02944 40.9706C11.5303 45.4714 17.6348 48 24 48ZM24 45C29.5695 45 34.911 42.7875 38.8492 38.8492C42.7875 34.911 45 29.5695 45 24C45 18.4305 42.7875 13.089 38.8492 9.15076C34.911 5.21249 29.5695 3 24 3C18.4305 3 13.089 5.21249 9.15076 9.15076C5.21249 13.089 3 18.4305 3 24C3 29.5695 5.21249 34.911 9.15076 38.8492C13.089 42.7875 18.4305 45 24 45Z" fill="white"/>
</svg>
