<svg width="48" height="48" viewBox="0 0 48 48" fill="none" xmlns="http://www.w3.org/2000/svg">
<path d="M25.062 34.0621C25.2017 33.9227 25.3125 33.7572 25.3881 33.575C25.4638 33.3927 25.5027 33.1974 25.5027 33.0001C25.5027 32.8028 25.4638 32.6074 25.3881 32.4252C25.3125 32.2429 25.2017 32.0774 25.062 31.9381L18.6215 25.5H33C33.3978 25.5 33.7794 25.342 34.0607 25.0607C34.342 24.7794 34.5 24.3978 34.5 24C34.5 23.6022 34.342 23.2206 34.0607 22.9393C33.7794 22.658 33.3978 22.5 33 22.5H18.6216L25.062 16.0621C25.2015 15.9226 25.3121 15.757 25.3876 15.5748C25.4631 15.3926 25.5019 15.1973 25.5019 15.0001C25.5019 14.8028 25.4631 14.6075 25.3876 14.4253C25.3121 14.2431 25.2015 14.0775 25.062 13.9381C24.9225 13.7986 24.757 13.688 24.5748 13.6125C24.3925 13.537 24.1972 13.4982 24 13.4982C23.8028 13.4982 23.6075 13.537 23.4253 13.6125C23.243 13.688 23.0775 13.7986 22.938 13.9381L13.938 22.9381C13.7983 23.0774 13.6875 23.2429 13.6119 23.4252C13.5362 23.6074 13.4973 23.8028 13.4973 24.0001C13.4973 24.1974 13.5362 24.3927 13.6119 24.575C13.6875 24.7572 13.7983 24.9227 13.938 25.0621L22.938 34.0621C23.0773 34.2018 23.2429 34.3126 23.4251 34.3882C23.6073 34.4638 23.8027 34.5027 24 34.5027C24.1973 34.5027 24.3927 34.4638 24.5749 34.3882C24.7571 34.3126 24.9227 34.2018 25.062 34.0621Z" fill="url(#paint0_linear)"/>
<path fill-rule="evenodd" clip-rule="evenodd" d="M24 48C17.6348 48 11.5303 45.4714 7.02943 40.9706C2.52856 36.4697 0 30.3652 0 24C0 17.6348 2.52856 11.5303 7.02943 7.02944C11.5303 2.52856 17.6348 0 24 0C30.3652 0 36.4697 2.52856 40.9706 7.02944C45.4714 11.5303 48 17.6348 48 24C48 30.3652 45.4714 36.4697 40.9706 40.9706C36.4697 45.4714 30.3652 48 24 48ZM24 45C18.4305 45 13.089 42.7875 9.15076 38.8492C5.21249 34.911 3 29.5695 3 24C3 18.4305 5.21249 13.089 9.15076 9.15076C13.089 5.21249 18.4305 3 24 3C29.5695 3 34.911 5.21249 38.8492 9.15076C42.7875 13.089 45 18.4305 45 24C45 29.5695 42.7875 34.911 38.8492 38.8492C34.911 42.7875 29.5695 45 24 45Z" fill="url(#paint1_linear)"/>
<defs>
<linearGradient id="paint0_linear" x1="24" y1="0" x2="24" y2="48" gradientUnits="userSpaceOnUse">
<stop stop-color="#FFFDFD"/>
<stop offset="1" stop-color="white"/>
</linearGradient>
<linearGradient id="paint1_linear" x1="24" y1="0" x2="24" y2="48" gradientUnits="userSpaceOnUse">
<stop stop-color="#FFFDFD"/>
<stop offset="1" stop-color="white"/>
</linearGradient>
</defs>
</svg>
