<svg width="20" height="40" viewBox="0 0 20 40" fill="none" xmlns="http://www.w3.org/2000/svg">
<path d="M2.83815 39.9948C2.17618 39.9961 1.53464 39.7642 1.02492 39.3392C0.738043 39.0998 0.500902 38.8059 0.327082 38.4742C0.153262 38.1425 0.0461786 37.7796 0.0119657 37.4062C-0.0222473 37.0328 0.0170828 36.6563 0.127702 36.2982C0.238322 35.9402 0.418055 35.6076 0.656613 35.3195L13.3492 20.0391L1.10992 4.73019C0.874582 4.43859 0.698836 4.10305 0.592786 3.74288C0.486735 3.38271 0.452472 3.005 0.491964 2.63146C0.531456 2.25793 0.643923 1.89592 0.822905 1.56626C1.00189 1.23661 1.24385 0.945788 1.53489 0.710531C1.82803 0.451002 2.17131 0.255244 2.5432 0.13554C2.91509 0.0158371 3.30755 -0.0252253 3.69596 0.0149282C4.08437 0.0550817 4.46033 0.175585 4.80026 0.368876C5.14019 0.562167 5.43674 0.824072 5.67131 1.13815L19.3555 18.2431C19.7722 18.7532 20 19.393 20 20.0534C20 20.7137 19.7722 21.3535 19.3555 21.8636L5.18968 38.9685C4.90546 39.3135 4.54442 39.5863 4.13585 39.7646C3.72728 39.9429 3.28269 40.0218 2.83815 39.9948Z" fill="white"/>
</svg>
