<svg width="40" height="40" viewBox="0 0 40 40" fill="none" xmlns="http://www.w3.org/2000/svg">
<path d="M19.6667 18.1667C15.8834 17.1833 14.6667 16.1667 14.6667 14.5833C14.6667 12.7667 16.35 11.5 19.1667 11.5C21.5334 11.5 22.7167 12.4 23.15 13.8333C23.35 14.5 23.9 15 24.6 15H25.1C26.2 15 26.9834 13.9167 26.6 12.8833C25.9 10.9167 24.2667 9.28333 21.6667 8.65V7.5C21.6667 6.11667 20.55 5 19.1667 5C17.7834 5 16.6667 6.11667 16.6667 7.5V8.6C13.4334 9.3 10.8334 11.4 10.8334 14.6167C10.8334 18.4667 14.0167 20.3833 18.6667 21.5C22.8334 22.5 23.6667 23.9667 23.6667 25.5167C23.6667 26.6667 22.85 28.5 19.1667 28.5C16.4167 28.5 15 27.5167 14.45 26.1167C14.2 25.4667 13.6334 25 12.95 25H12.4834C11.3667 25 10.5834 26.1333 11 27.1667C11.95 29.4833 14.1667 30.85 16.6667 31.3833V32.5C16.6667 33.8833 17.7834 35 19.1667 35C20.55 35 21.6667 33.8833 21.6667 32.5V31.4167C24.9167 30.8 27.5 28.9167 27.5 25.5C27.5 20.7667 23.45 19.15 19.6667 18.1667Z" fill="white"/>
</svg>
