<svg width="40" height="40" viewBox="0 0 40 40" fill="none" xmlns="http://www.w3.org/2000/svg">
<path d="M12.5004 13.75H15.0004V16.25H12.5004V13.75Z" fill="white"/>
<path d="M12.5004 18.75H15.0004V21.25H12.5004V18.75Z" fill="white"/>
<path d="M17.5004 16.25H20.0004V18.75H17.5004V16.25Z" fill="white"/>
<path d="M12.5004 36.25C12.1892 36.2499 11.8784 36.2274 11.5704 36.1825C10.0718 35.9329 8.71192 35.1557 7.73629 33.9912C6.76066 32.8266 6.23362 31.3516 6.25039 29.8325V15.2487C6.23384 13.0473 7.02907 10.9168 8.4841 9.26465C9.93914 7.61246 11.952 6.55434 14.1379 6.2925C16.0956 6.09448 18.0627 6.56597 19.7179 7.63L29.6804 13.8562C30.9976 14.6871 32.0684 15.8553 32.7817 17.2397C33.495 18.6241 33.8248 20.1742 33.7368 21.729C33.6488 23.2839 33.1462 24.7868 32.2812 26.0819C31.4163 27.3769 30.2204 28.4169 28.8179 29.0938L15.2179 35.63C14.3706 36.0396 13.4415 36.2516 12.5004 36.25ZM15.0029 8.75C14.7962 8.75 14.5879 8.76 14.3779 8.78C12.8089 8.97777 11.3677 9.74658 10.3297 10.9396C9.29158 12.1326 8.72937 13.6662 8.75039 15.2475V29.8337C8.73141 30.7525 9.04126 31.6478 9.62409 32.3583C10.2069 33.0688 11.0244 33.5477 11.9291 33.7087C12.6803 33.8221 13.4482 33.7066 14.1329 33.3775L27.7366 26.84C28.7367 26.3564 29.5891 25.6141 30.2055 24.69C30.8218 23.7659 31.1797 22.6937 31.2419 21.5846C31.3042 20.4755 31.0685 19.37 30.5594 18.3827C30.0503 17.3955 29.2863 16.5624 28.3466 15.97L18.3816 9.7425C17.3747 9.09264 16.2013 8.74795 15.0029 8.75Z" fill="white"/>
<path d="M33.7504 10H28.7504C27.4248 9.99835 26.154 9.47103 25.2167 8.53371C24.2794 7.59638 23.752 6.32557 23.7504 5V3.75H26.2504V5C26.2511 5.66284 26.5147 6.29834 26.9834 6.76704C27.452 7.23573 28.0876 7.49934 28.7504 7.5H33.7504V10Z" fill="white"/>
</svg>
