<svg width="40" height="40" viewBox="0 0 40 40" fill="none" xmlns="http://www.w3.org/2000/svg">
<path d="M15.1567 21.8167C15.3361 21.5485 15.5286 21.2893 15.7334 21.04C15.2878 20.1997 15.0554 19.2628 15.0567 18.3117C13.9593 17.223 13.3386 15.7433 13.3311 14.1974C13.3236 12.6516 13.9299 11.166 15.0167 10.0667C15.0289 8.53544 15.6427 7.07041 16.7257 5.98778C17.8086 4.90516 19.2738 4.29177 20.8051 4.28C21.3485 3.71621 22.0002 3.26795 22.721 2.96209C23.4418 2.65622 24.217 2.49906 25.0001 2.5C26.5717 2.5 27.9984 3.12167 29.0467 4.13334C29.8155 4.12961 30.5774 4.27769 31.2888 4.56909C32.0001 4.86049 32.647 5.28947 33.1922 5.83143C33.7374 6.37339 34.1703 7.01766 34.4659 7.72729C34.7616 8.43691 34.9142 9.19792 34.9151 9.96667C36.0321 11.0795 36.6621 12.5899 36.6667 14.1667C36.6667 15.75 36.0351 17.1883 35.0101 18.2383V18.3333C35.0102 19.1073 34.8562 19.8735 34.5573 20.5874C34.2583 21.3013 33.8203 21.9486 33.2687 22.4915C32.7171 23.0344 32.0629 23.4621 31.3444 23.7497C30.6258 24.0373 29.8573 24.1791 29.0834 24.1667C28.0317 25.1967 26.5901 25.8333 25.0001 25.8333C23.4001 25.8333 21.9501 25.1883 20.8951 24.145C19.9166 24.1465 18.9535 23.9012 18.0951 23.4317C17.271 24.5576 16.8445 25.9256 16.8829 27.3204C16.9212 28.7152 17.4221 30.0577 18.3067 31.1367L21.2901 34.7767C21.4288 34.946 21.5329 35.1409 21.5963 35.3504C21.6597 35.56 21.6812 35.7799 21.6597 35.9977C21.6381 36.2156 21.5738 36.427 21.4705 36.62C21.3672 36.813 21.2269 36.9837 21.0576 37.1225C20.8883 37.2613 20.6933 37.3653 20.4838 37.4287C20.2743 37.4922 20.0543 37.5137 19.8365 37.4921C19.6187 37.4705 19.4072 37.4062 19.2142 37.3029C19.0212 37.1996 18.8505 37.0593 18.7117 36.89L15.7284 33.25C15.0368 32.4079 14.4935 31.4543 14.1217 30.43C13.2436 30.9179 12.2459 31.149 11.2427 31.0968C10.2395 31.0447 9.27118 30.7114 8.4484 30.135C6.83506 29.0033 5.45673 25.3667 4.31506 19.2233C9.55173 19.5183 12.9767 20.2317 14.5917 21.3617C14.7917 21.5033 14.9817 21.655 15.1584 21.8183L15.1567 21.8167ZM22.2651 20.81L23.2417 21.7767C23.7084 22.2383 24.3301 22.5 25.0001 22.5C25.6667 22.5 26.2834 22.2433 26.7501 21.785L27.7434 20.8117L29.1351 20.8333C30.5584 20.8333 31.6767 19.715 31.6767 18.3333L31.6551 16.905L32.6234 15.9117C33.0784 15.445 33.3334 14.83 33.3334 14.1667C33.3334 13.4833 33.0617 12.85 32.5834 12.38L31.5734 11.3917L31.5817 9.98C31.5817 8.585 30.4634 7.465 29.0817 7.465L27.7101 7.47334L26.7351 6.53334C26.2703 6.08244 25.6476 5.83121 25.0001 5.83334C24.6643 5.83238 24.3318 5.89953 24.0227 6.03073C23.7136 6.16194 23.4343 6.35446 23.2017 6.59667L22.2301 7.60167L20.8301 7.61334C20.1739 7.61857 19.5462 7.88153 19.0822 8.34549C18.6183 8.80945 18.3553 9.43722 18.3501 10.0933L18.3401 11.4467L17.3884 12.41C16.9267 12.8767 16.6667 13.4967 16.6667 14.1667C16.6667 14.845 16.9334 15.4717 17.4051 15.9417L18.3917 16.92V18.31C18.3917 18.973 18.6551 19.6089 19.124 20.0778C19.5928 20.5466 20.2287 20.81 20.8917 20.81H22.2651ZM25.0001 17.5C24.116 17.5 23.2682 17.1488 22.643 16.5237C22.0179 15.8986 21.6667 15.0507 21.6667 14.1667C21.6667 13.2826 22.0179 12.4348 22.643 11.8096C23.2682 11.1845 24.116 10.8333 25.0001 10.8333C25.8841 10.8333 26.732 11.1845 27.3571 11.8096C27.9822 12.4348 28.3334 13.2826 28.3334 14.1667C28.3334 15.0507 27.9822 15.8986 27.3571 16.5237C26.732 17.1488 25.8841 17.5 25.0001 17.5ZM10.3617 27.4033C10.8012 27.6857 11.3329 27.7871 11.8454 27.6861C12.3579 27.5852 12.8114 27.2897 13.1109 26.8618C13.4105 26.4338 13.5327 25.9066 13.4521 25.3905C13.3714 24.8744 13.0942 24.4095 12.6784 24.0933C12.0817 23.675 10.6817 23.275 8.56173 22.97C9.26173 25.58 9.9384 27.1083 10.3617 27.4033Z" fill="white"/>
</svg>
