<svg width="23" height="11" viewBox="0 0 23 11" fill="none" xmlns="http://www.w3.org/2000/svg">
<path d="M0.00296586 1.56098C0.00221819 1.1969 0.135609 0.844054 0.379986 0.563707C0.517597 0.405923 0.686605 0.275495 0.877323 0.179894C1.06804 0.084293 1.27673 0.0253973 1.49142 0.00658017C1.70613 -0.0122369 1.92262 0.00939461 2.12851 0.0702353C2.33441 0.131076 2.52565 0.229929 2.69129 0.361136L11.4775 7.34205L20.2801 0.610457C20.4478 0.48102 20.6407 0.38436 20.8478 0.326032C21.0549 0.267704 21.2721 0.248859 21.4869 0.27058C21.7017 0.292301 21.9098 0.354158 22.0994 0.452598C22.289 0.551038 22.4562 0.684119 22.5914 0.844192C22.7407 1.00542 22.8532 1.19422 22.9221 1.39876C22.9909 1.6033 23.0145 1.81915 22.9914 2.03278C22.9683 2.2464 22.899 2.45318 22.7879 2.64014C22.6768 2.82711 22.5262 2.99021 22.3456 3.11922L12.5102 10.6455C12.2169 10.8747 11.849 11 11.4693 11C11.0896 11 10.7217 10.8747 10.4284 10.6455L0.593086 2.85432C0.394712 2.698 0.237898 2.49943 0.135366 2.27472C0.0328349 2.05 -0.0125256 1.80548 0.00296586 1.56098Z" fill="white"/>
</svg>
