<svg width="120" height="120" viewBox="0 0 120 120" fill="none" xmlns="http://www.w3.org/2000/svg">
<g clip-path="url(#clip0)">
<path d="M30.2419 0C28.9475 0 27.898 1.04977 27.898 2.34398C27.898 3.63844 28.9475 4.68797 30.2419 4.68797C43.4825 4.68797 54.2544 15.7395 54.2544 29.3243C54.2544 30.6187 55.3041 31.6683 56.5983 31.6683C57.8928 31.6683 58.9423 30.6185 58.9423 29.3243C58.9426 13.1548 46.0674 0 30.2419 0Z" fill="url(#paint0_radial)"/>
<path d="M30.2342 11.1202C28.9397 11.1202 27.8902 12.17 27.8902 13.4642C27.8902 14.7586 28.9397 15.8082 30.2342 15.8082C37.4846 15.8082 43.3831 21.8712 43.3831 29.3236C43.3831 30.6181 44.4328 31.6676 45.7271 31.6676C47.0215 31.6676 48.071 30.6178 48.071 29.3236C48.0713 19.2863 40.0695 11.1202 30.2342 11.1202Z" fill="url(#paint1_radial)"/>
<path d="M30.2797 21.3642C28.985 21.3642 27.9357 22.4135 27.9357 23.7082C27.9357 25.0027 28.9854 26.0522 30.2797 26.0522C31.9735 26.0522 33.3511 27.4875 33.3511 29.2519C33.3511 30.5464 34.4007 31.5959 35.6951 31.5959C36.9896 31.5959 38.0391 30.5461 38.0391 29.2519C38.0393 24.9026 34.5582 21.3642 30.2797 21.3642Z" fill="url(#paint2_radial)"/>
<path d="M107.457 18.578H102.261C100.967 18.578 99.9172 19.6275 99.9172 20.922C99.9172 22.2164 100.967 23.266 102.261 23.266H107.457C111.787 23.266 115.31 26.7886 115.31 31.1185V62.937C115.31 65.43 114.14 67.6535 112.323 69.0931V62.9632C112.323 58.181 108.911 54.0736 104.21 53.1968L102.695 52.9144C103.032 51.8785 103.217 50.7746 103.217 49.6273V44.2409C103.217 38.3841 98.4525 33.6193 92.5957 33.6193C86.739 33.6193 81.9743 38.3841 81.9743 44.2409V49.6273C81.9743 50.7746 82.1595 51.8785 82.4972 52.9144L80.982 53.1968C76.2807 54.0734 72.8686 58.1808 72.8686 62.9632V69.7585C70.4996 68.405 68.8981 65.8552 68.8981 62.937V31.1185C68.8981 26.7886 72.4208 23.266 76.7506 23.266H82.3372C83.6316 23.266 84.6811 22.2164 84.6811 20.922C84.6811 19.6275 83.6314 18.578 82.3372 18.578H76.7506C69.8358 18.578 64.2101 24.2037 64.2101 31.1185V62.937C64.2101 69.8518 69.8358 75.4775 76.7506 75.4775H88.5458V82.2169C88.5458 83.1636 89.1153 84.0176 89.9893 84.3809C90.2804 84.5021 90.586 84.5609 90.8893 84.5609C91.4968 84.5609 92.0942 84.3246 92.5421 83.8798L100.997 75.4775H107.457C114.372 75.4775 119.997 69.8518 119.997 62.937V31.1185C119.997 24.2037 114.372 18.578 107.457 18.578ZM86.6621 44.2409C86.6621 40.969 89.3236 38.3072 92.5955 38.3072C95.8674 38.3072 98.5292 40.969 98.5292 44.2409V49.6273C98.5292 52.8992 95.8674 55.561 92.5955 55.561C89.3236 55.561 86.6621 52.8992 86.6621 49.6273V44.2409ZM107.634 70.7846C107.575 70.786 107.516 70.789 107.457 70.789H100.031C99.4116 70.789 98.8177 71.0344 98.3785 71.4706L93.2337 76.5832V73.1332C93.2337 71.8388 92.184 70.7893 90.8897 70.7893H77.5569V62.963C77.5569 60.4376 79.359 58.2682 81.8415 57.8051L85.1459 57.1889C87.0645 59.0796 89.6956 60.2487 92.5957 60.2487C95.4957 60.2487 98.1272 59.0792 100.046 57.1887L103.351 57.8049C105.833 58.268 107.635 60.4371 107.635 62.963L107.634 70.7846Z" fill="url(#paint3_radial)"/>
<path d="M92.8231 19.2657C92.3874 18.8274 91.7825 18.579 91.1661 18.579C90.5497 18.579 89.9448 18.8274 89.5088 19.2657C89.0729 19.6996 88.8221 20.3045 88.8221 20.923C88.8221 21.5394 89.0727 22.1443 89.5088 22.5803C89.9448 23.016 90.5494 23.267 91.1661 23.267C91.7825 23.267 92.3874 23.0162 92.8231 22.5803C93.2591 22.142 93.5101 21.5396 93.5101 20.923C93.5101 20.3042 93.2593 19.7017 92.8231 19.2657Z" fill="url(#paint4_radial)"/>
<path d="M43.5638 78.8525C43.1278 78.4166 42.5255 78.1658 41.9065 78.1658C41.2901 78.1658 40.6852 78.4166 40.2495 78.8525C39.8135 79.2885 39.5625 79.8932 39.5625 80.5098C39.5625 81.1286 39.8133 81.7311 40.2495 82.1671C40.6875 82.6053 41.2901 82.8559 41.9065 82.8559C42.5229 82.8559 43.1278 82.6053 43.5638 82.1671C44.0021 81.7311 44.2505 81.1283 44.2505 80.5098C44.2505 79.8934 44.0021 79.2887 43.5638 78.8525Z" fill="url(#paint5_radial)"/>
<path d="M94.8699 100.048L76.9121 82.0898C74.5215 79.6992 70.7607 79.3495 67.9707 81.2575L56.5093 89.0945C55.579 89.7304 54.3261 89.6139 53.529 88.8168L49.7389 85.0265C48.8239 84.1117 47.3401 84.1115 46.4236 85.0265C45.5084 85.9417 45.5084 87.4258 46.4236 88.3417L50.2137 92.132C52.6044 94.5224 56.3647 94.8728 59.1551 92.9643L70.6165 85.1275C71.5463 84.4917 72.7997 84.6079 73.5969 85.405L91.5549 103.363C92.4687 104.277 92.4685 105.764 91.5547 106.678C80.0394 118.194 61.3022 118.194 49.7869 106.678L13.3224 70.2133C7.74381 64.6349 4.67209 57.2184 4.67209 49.3293C4.67209 41.4403 7.74404 34.0235 13.3226 28.4449C13.7654 28.0021 14.3539 27.7586 14.9799 27.7586C15.6062 27.7586 16.1949 28.0024 16.6374 28.4451L34.5952 46.4031C35.3919 47.1998 35.5086 48.4535 34.8729 49.3835L27.0364 60.8449C25.1279 63.6351 25.478 67.3954 27.8684 69.7863L33.5656 75.4835C34.4811 76.3985 35.9649 76.3985 36.8808 75.4835C37.7961 74.5682 37.7961 73.0839 36.8808 72.1682L31.1836 66.471C30.387 65.6744 30.2703 64.421 30.9061 63.491L38.7429 52.0296C40.651 49.2391 40.3008 45.4785 37.9104 43.0881L19.9526 25.1301C17.2109 22.3884 12.7496 22.3884 10.0074 25.1301C-3.3358 38.4735 -3.3358 60.1849 10.0074 73.5283L46.4719 109.993C53.1436 116.664 61.9072 120 70.6707 120C79.4344 120 88.1979 116.664 94.8697 109.993C97.6114 107.251 97.6114 102.79 94.8699 100.048Z" fill="url(#paint6_radial)"/>
<path d="M31.5753 57.6371L17.3661 43.4279C16.4504 42.5129 14.9666 42.5129 14.0509 43.4279C13.1356 44.3433 13.1356 45.8276 14.0509 46.7431L28.2603 60.9523C28.718 61.4098 29.3176 61.6388 29.9178 61.6388C30.5176 61.6388 31.1176 61.4098 31.5753 60.9523C32.4905 60.0368 32.4905 58.5526 31.5753 57.6371Z" fill="url(#paint7_radial)"/>
<path d="M85.9583 112.02L71.0077 97.0692C70.092 96.1542 68.6082 96.1542 67.6925 97.0692C66.7773 97.9846 66.7773 99.4689 67.6925 100.384L82.6431 115.335C83.1008 115.792 83.7003 116.021 84.3006 116.021C84.9003 116.021 85.5003 115.792 85.9583 115.335C86.8735 114.419 86.8735 112.935 85.9583 112.02Z" fill="url(#paint8_radial)"/>
</g>
<defs>
<radialGradient id="paint0_radial" cx="0" cy="0" r="1" gradientUnits="userSpaceOnUse" gradientTransform="translate(59.9987 -29.091) rotate(90) scale(108.485 69.2889)">
<stop stop-color="#FD83BD"/>
<stop offset="1" stop-color="#FF4B65"/>
</radialGradient>
<radialGradient id="paint1_radial" cx="0" cy="0" r="1" gradientUnits="userSpaceOnUse" gradientTransform="translate(59.9987 -29.091) rotate(90) scale(108.485 69.2889)">
<stop stop-color="#FD83BD"/>
<stop offset="1" stop-color="#FF4B65"/>
</radialGradient>
<radialGradient id="paint2_radial" cx="0" cy="0" r="1" gradientUnits="userSpaceOnUse" gradientTransform="translate(59.9987 -29.091) rotate(90) scale(108.485 69.2889)">
<stop stop-color="#FD83BD"/>
<stop offset="1" stop-color="#FF4B65"/>
</radialGradient>
<radialGradient id="paint3_radial" cx="0" cy="0" r="1" gradientUnits="userSpaceOnUse" gradientTransform="translate(59.9987 -29.091) rotate(90) scale(108.485 69.2889)">
<stop stop-color="#FD83BD"/>
<stop offset="1" stop-color="#FF4B65"/>
</radialGradient>
<radialGradient id="paint4_radial" cx="0" cy="0" r="1" gradientUnits="userSpaceOnUse" gradientTransform="translate(59.9987 -29.091) rotate(90) scale(108.485 69.2889)">
<stop stop-color="#FD83BD"/>
<stop offset="1" stop-color="#FF4B65"/>
</radialGradient>
<radialGradient id="paint5_radial" cx="0" cy="0" r="1" gradientUnits="userSpaceOnUse" gradientTransform="translate(59.9987 -29.091) rotate(90) scale(108.485 69.2889)">
<stop stop-color="#FD83BD"/>
<stop offset="1" stop-color="#FF4B65"/>
</radialGradient>
<radialGradient id="paint6_radial" cx="0" cy="0" r="1" gradientUnits="userSpaceOnUse" gradientTransform="translate(59.9987 -29.091) rotate(90) scale(108.485 69.2889)">
<stop stop-color="#FD83BD"/>
<stop offset="1" stop-color="#FF4B65"/>
</radialGradient>
<radialGradient id="paint7_radial" cx="0" cy="0" r="1" gradientUnits="userSpaceOnUse" gradientTransform="translate(59.9987 -29.091) rotate(90) scale(108.485 69.2889)">
<stop stop-color="#FD83BD"/>
<stop offset="1" stop-color="#FF4B65"/>
</radialGradient>
<radialGradient id="paint8_radial" cx="0" cy="0" r="1" gradientUnits="userSpaceOnUse" gradientTransform="translate(59.9987 -29.091) rotate(90) scale(108.485 69.2889)">
<stop stop-color="#FD83BD"/>
<stop offset="1" stop-color="#FF4B65"/>
</radialGradient>
<clipPath id="clip0">
<rect width="120" height="120" fill="white"/>
</clipPath>
</defs>
</svg>
