<svg width="120" height="120" viewBox="0 0 120 120" fill="none" xmlns="http://www.w3.org/2000/svg">
<g clip-path="url(#clip0)">
<path d="M97.3335 72.9043C96.3612 72.9043 95.573 73.6925 95.573 74.6648V77.8066C95.573 78.7789 96.3612 79.5671 97.3335 79.5671C98.3058 79.5671 99.0941 78.7789 99.0941 77.8066V74.6648C99.0941 73.6925 98.3058 72.9043 97.3335 72.9043Z" fill="url(#paint0_radial)"/>
<path d="M81.8133 72.9043C80.841 72.9043 80.0527 73.6925 80.0527 74.6648V77.8066C80.0527 78.7789 80.841 79.5671 81.8133 79.5671C82.7856 79.5671 83.5738 78.7789 83.5738 77.8066V74.6648C83.5738 73.6925 82.7856 72.9043 81.8133 72.9043Z" fill="url(#paint1_radial)"/>
<path d="M89.5736 60.709C88.6014 60.709 87.8131 61.4972 87.8131 62.4695V65.6113C87.8131 66.5835 88.6014 67.3718 89.5736 67.3718C90.5459 67.3718 91.3342 66.5835 91.3342 65.6113V62.4695C91.3342 61.4972 90.5459 60.709 89.5736 60.709Z" fill="url(#paint2_radial)"/>
<path d="M106.149 60.709C105.177 60.709 104.388 61.4972 104.388 62.4695V65.6113C104.388 66.5835 105.177 67.3718 106.149 67.3718C107.121 67.3718 107.909 66.5835 107.909 65.6113V62.4695C107.909 61.4972 107.121 60.709 106.149 60.709Z" fill="url(#paint3_radial)"/>
<path d="M89.5736 83.4951C88.6014 83.4951 87.8131 84.2834 87.8131 85.2557V88.3974C87.8131 89.3697 88.6014 90.1579 89.5736 90.1579C90.5459 90.1579 91.3342 89.3697 91.3342 88.3974V85.2557C91.3342 84.2834 90.5459 83.4951 89.5736 83.4951Z" fill="url(#paint4_radial)"/>
<path d="M111.203 45.4305C111.577 45.068 111.946 44.6967 112.303 44.3056C115.341 40.9815 117.191 36.9984 117.653 32.7872C117.777 31.657 117.222 30.5591 116.238 29.9901C112.618 27.8958 108.372 27.0216 103.957 27.4627C102.737 27.5845 101.56 27.7836 100.439 28.0554C100.285 26.7216 100.016 25.3766 99.6286 24.0332C99.3591 23.0989 98.3838 22.5599 97.4491 22.8294C96.5148 23.0989 95.9758 24.0747 96.2453 25.009C96.65 26.4125 96.9049 27.8122 97.0124 29.1892C95.9333 29.6533 94.9331 30.1971 94.031 30.8199C92.3517 31.979 90.8588 33.2908 89.5726 34.7194C88.2872 33.2905 86.7955 31.9788 85.1166 30.8199C84.2178 30.1995 83.2216 29.6572 82.1469 29.1943C82.327 27.3535 82.8446 25.3918 83.6838 23.3998C85.0579 20.1379 87.2368 17.4795 89.9996 15.6868C91.0635 16.4713 92.0341 17.3988 92.8897 18.4487C93.5038 19.2025 94.6129 19.3156 95.3667 18.7013C96.1204 18.0872 96.2336 16.9781 95.6193 16.2244C94.4639 14.8063 93.1322 13.569 91.6618 12.5467C90.7283 11.8977 89.4985 11.861 88.5283 12.4531C84.9589 14.6319 82.1617 17.9448 80.4392 22.0329C79.5801 24.0724 79.0101 26.1059 78.7392 28.0636C77.6085 27.788 76.4221 27.5861 75.1905 27.4631C70.7767 27.0223 66.5293 27.8965 62.9097 29.9906C61.9261 30.5596 61.3705 31.6577 61.4944 32.7877C61.9562 36.9989 63.8061 40.9819 66.8444 44.3061C67.2023 44.6979 67.5695 45.0746 67.9441 45.438C66.327 47.075 64.8918 48.8919 63.6761 50.859C58.2537 46.6321 51.7178 44.4993 45.1715 44.4596C45.179 43.9394 45.1712 43.415 45.1473 42.8866C44.9449 38.3879 43.4367 34.2633 40.7856 30.9589C40.0741 30.072 38.9051 29.688 37.807 29.9816C33.7667 31.0603 30.1459 33.445 27.3361 36.8783C26.5593 37.8271 25.8682 38.7996 25.2675 39.7845C23.8777 38.682 22.3366 37.7127 20.6559 36.894C16.6071 34.9217 12.2631 34.2755 8.09387 35.0252C6.97511 35.2264 6.07935 36.0701 5.81198 37.1747C4.82866 41.2392 5.19298 45.5596 6.86619 49.6684C7.70092 51.7191 8.73893 53.5566 9.93257 55.1324C8.93681 55.7376 7.95373 56.4345 6.99459 57.2195C3.56155 60.0293 1.17661 63.6501 0.0979858 67.6904C-0.195202 68.7883 0.188125 69.9573 1.0752 70.6693C4.37961 73.3204 8.50419 74.8286 13.0029 75.0309C13.4051 75.049 13.8046 75.0582 14.2018 75.0582C14.3224 75.0582 14.4419 75.0542 14.5621 75.0523C14.609 83.1116 17.7679 90.6812 23.4716 96.3851C24.7995 97.713 26.2002 98.8658 27.753 99.9094C28.5602 100.452 29.6539 100.237 30.1961 99.4301C30.7383 98.6231 30.5238 97.5292 29.7168 96.9869C28.3548 96.0719 27.1264 95.0604 25.9612 93.8954C15.4708 83.405 15.4708 66.3355 25.9612 55.8451C36.4514 45.3549 53.5206 45.3544 64.0115 55.8451C66.5866 58.4202 69.565 62.3128 72.1314 71.6592C72.6314 73.4807 73.0619 75.3154 73.4112 77.1121C74.9585 85.0768 74.9597 92.2046 73.4142 98.298C72.7893 100.76 70.8673 102.676 68.3981 103.296C56.8767 106.191 44.2489 102.968 37.7469 100.789C37.4007 100.673 37.0582 100.554 36.7192 100.432C35.8047 100.103 34.7958 100.577 34.4662 101.492C34.1367 102.407 34.6113 103.415 35.5261 103.745C35.8897 103.876 36.2568 104.003 36.6282 104.128C41.522 105.768 49.7162 107.963 58.5076 107.963C62.0524 107.963 65.6958 107.606 69.2563 106.711C72.5483 105.884 75.1938 103.529 76.4167 100.428C78.7526 102.681 81.3495 104.766 84.2209 106.484C85.8746 107.474 87.7285 107.968 89.5825 107.968C91.4252 107.968 93.2679 107.479 94.9113 106.501C100.762 103.018 106.178 97.6217 111.008 90.4622C112.081 88.8713 113.121 87.193 114.099 85.474C117.018 80.3464 120.001 74.119 120.001 66.8083C120 58.4831 116.639 50.9297 111.203 45.4305ZM14.7419 71.5244C14.217 71.5385 13.6891 71.5369 13.1602 71.5132C9.56638 71.3514 6.27606 70.2026 3.6153 68.1857C4.55214 65.028 6.4845 62.1858 9.2239 59.9439C11.776 57.8554 14.4722 56.5042 17.021 56.0371C18.4827 55.7693 19.9411 55.6559 21.3664 55.6848C17.659 60.2323 15.3754 65.6959 14.7419 71.5244ZM22.6901 46.2704C22.3221 48.2783 22.1944 50.2618 22.2967 52.1818C20.377 52.0792 18.3939 52.2059 16.3865 52.5738C15.3125 52.7707 14.225 53.0916 13.1382 53.524C11.9635 52.0952 10.9419 50.3426 10.1267 48.3403C8.79175 45.0617 8.45278 41.6413 9.13869 38.4202C12.4398 37.92 15.879 38.4834 19.1132 40.059C20.7716 40.8667 22.3127 41.873 23.6453 43.0094C23.2103 44.1004 22.8875 45.1922 22.6901 46.2704ZM41.6405 44.6422C35.977 45.2631 30.4567 47.4666 25.8025 51.2527C25.7729 49.8266 25.8854 48.3675 26.1534 46.9053C26.6206 44.3563 27.9715 41.6601 30.0602 39.108C32.3022 36.3686 35.1441 34.4363 38.3018 33.4994C40.319 36.1602 41.4675 39.4505 41.6293 43.0444C41.6532 43.5786 41.6553 44.1119 41.6405 44.6422ZM96.031 33.7173C98.1636 32.2452 101.025 31.2938 104.307 30.9664C107.829 30.6145 111.205 31.2579 114.1 32.8283C113.645 36.136 112.131 39.2749 109.704 41.9303C109.343 42.3256 108.965 42.7012 108.579 43.0657C104.136 39.5019 98.6767 37.156 92.7109 36.5419C93.697 35.5128 94.808 34.5614 96.031 33.7173ZM65.0465 32.8283C67.9415 31.2582 71.3173 30.615 74.8402 30.9664C78.1217 31.2938 80.9833 32.2452 83.1162 33.7173C84.3401 34.5621 85.4537 35.5135 86.4426 36.5423C80.4754 37.1555 75.0142 39.4998 70.5708 43.0648C70.1842 42.7002 69.8044 42.3261 69.4429 41.9303C67.016 39.2747 65.5017 36.136 65.0465 32.8283ZM111.039 83.7315C110.104 85.3733 109.111 86.9749 108.088 88.4922C103.55 95.2184 98.5105 100.259 93.109 103.475C90.9264 104.774 88.2128 104.77 86.0276 103.462C82.7974 101.529 79.9249 99.0822 77.408 96.4473C78.4714 90.4936 78.2925 83.7796 76.8665 76.4398C76.5003 74.5561 76.0494 72.6338 75.5259 70.7263C73.9637 65.0372 71.6699 58.5244 66.5005 53.3548C66.4547 53.309 66.4077 53.2649 66.3617 53.2195C71.0396 45.2589 79.6913 39.9022 89.5733 39.9022C104.409 39.9022 116.479 51.9719 116.479 66.8076C116.479 70.4493 115.833 75.3079 111.039 83.7315Z" fill="url(#paint5_radial)"/>
<path d="M57.2736 73.6934C56.5861 73.0058 55.4713 73.0058 54.784 73.6934C54.0964 74.3809 54.0964 75.4957 54.784 76.183L57.0055 78.4046C57.3492 78.7483 57.7999 78.9203 58.2503 78.9203C58.7008 78.9203 59.1515 78.7485 59.4952 78.4046C60.1827 77.717 60.1827 76.6023 59.4952 75.915L57.2736 73.6934Z" fill="url(#paint6_radial)"/>
<path d="M43.8095 84.6679C43.1219 85.3555 43.1219 86.4702 43.8095 87.1575L46.031 89.3791C46.3747 89.723 46.8254 89.8948 47.2759 89.8948C47.7263 89.8948 48.177 89.723 48.5207 89.3791C49.2082 88.6916 49.2082 87.5768 48.5207 86.8895L46.2991 84.6679C45.6118 83.9804 44.497 83.9806 43.8095 84.6679Z" fill="url(#paint7_radial)"/>
<path d="M43.1628 70.5567C42.4752 69.8691 41.3604 69.8691 40.6731 70.5567C39.9856 71.2442 39.9856 72.359 40.6731 73.0463L42.8947 75.2679C43.2383 75.6115 43.689 75.7836 44.1395 75.7836C44.59 75.7836 45.0407 75.6118 45.3843 75.2679C46.0719 74.5803 46.0719 73.4656 45.3843 72.7782L43.1628 70.5567Z" fill="url(#paint8_radial)"/>
<path d="M54.8833 58.8361C54.1958 58.1483 53.081 58.1485 52.3937 58.8361C51.7062 59.5236 51.7062 60.6384 52.3937 61.3257L54.6153 63.5473C54.9589 63.8912 55.4096 64.063 55.8601 64.063C56.3106 64.063 56.7613 63.8912 57.1049 63.5473C57.7925 62.8597 57.7925 61.7449 57.1049 61.0576L54.8833 58.8361Z" fill="url(#paint9_radial)"/>
<path d="M31.4422 82.2774C30.7546 81.5898 29.6399 81.5898 28.9526 82.2774C28.265 82.9649 28.265 84.0797 28.9526 84.767L31.1741 86.9886C31.5178 87.3322 31.9685 87.5043 32.4189 87.5043C32.8694 87.5043 33.3201 87.3325 33.6637 86.9886C34.3513 86.301 34.3513 85.1863 33.6637 84.4989L31.4422 82.2774Z" fill="url(#paint10_radial)"/>
<path d="M56.7858 86.6691C56.0983 87.3566 56.0983 88.4712 56.7858 89.1587L59.0074 91.3803C59.351 91.7242 59.8017 91.896 60.2522 91.896C60.7026 91.896 61.1533 91.7242 61.497 91.3803C62.1845 90.6927 62.1845 89.5782 61.497 88.8906L59.2754 86.6691C58.5881 85.9813 57.4733 85.9815 56.7858 86.6691Z" fill="url(#paint11_radial)"/>
</g>
<defs>
<radialGradient id="paint0_radial" cx="0" cy="0" r="1" gradientUnits="userSpaceOnUse" gradientTransform="translate(97.3335 71.2891) rotate(90) scale(6.02345 2.03313)">
<stop stop-color="#FD83BD"/>
<stop offset="1" stop-color="#FF4B65"/>
</radialGradient>
<radialGradient id="paint1_radial" cx="0" cy="0" r="1" gradientUnits="userSpaceOnUse" gradientTransform="translate(81.8133 71.2891) rotate(90) scale(6.02345 2.03313)">
<stop stop-color="#FD83BD"/>
<stop offset="1" stop-color="#FF4B65"/>
</radialGradient>
<radialGradient id="paint2_radial" cx="0" cy="0" r="1" gradientUnits="userSpaceOnUse" gradientTransform="translate(89.5736 59.0938) rotate(90) scale(6.02345 2.03313)">
<stop stop-color="#FD83BD"/>
<stop offset="1" stop-color="#FF4B65"/>
</radialGradient>
<radialGradient id="paint3_radial" cx="0" cy="0" r="1" gradientUnits="userSpaceOnUse" gradientTransform="translate(106.149 59.0938) rotate(90) scale(6.02345 2.03313)">
<stop stop-color="#FD83BD"/>
<stop offset="1" stop-color="#FF4B65"/>
</radialGradient>
<radialGradient id="paint4_radial" cx="0" cy="0" r="1" gradientUnits="userSpaceOnUse" gradientTransform="translate(89.5736 81.8799) rotate(90) scale(6.02345 2.03313)">
<stop stop-color="#FD83BD"/>
<stop offset="1" stop-color="#FF4B65"/>
</radialGradient>
<radialGradient id="paint5_radial" cx="0" cy="0" r="1" gradientUnits="userSpaceOnUse" gradientTransform="translate(60.0009 -11.2238) rotate(90) scale(86.7294 69.2904)">
<stop stop-color="#FD83BD"/>
<stop offset="1" stop-color="#FF4B65"/>
</radialGradient>
<radialGradient id="paint6_radial" cx="0" cy="0" r="1" gradientUnits="userSpaceOnUse" gradientTransform="translate(57.1396 71.7856) rotate(90) scale(5.19152 3.31584)">
<stop stop-color="#FD83BD"/>
<stop offset="1" stop-color="#FF4B65"/>
</radialGradient>
<radialGradient id="paint7_radial" cx="0" cy="0" r="1" gradientUnits="userSpaceOnUse" gradientTransform="translate(46.1651 82.7602) rotate(90) scale(5.19143 3.31584)">
<stop stop-color="#FD83BD"/>
<stop offset="1" stop-color="#FF4B65"/>
</radialGradient>
<radialGradient id="paint8_radial" cx="0" cy="0" r="1" gradientUnits="userSpaceOnUse" gradientTransform="translate(43.0287 68.6489) rotate(90) scale(5.19152 3.31584)">
<stop stop-color="#FD83BD"/>
<stop offset="1" stop-color="#FF4B65"/>
</radialGradient>
<radialGradient id="paint9_radial" cx="0" cy="0" r="1" gradientUnits="userSpaceOnUse" gradientTransform="translate(54.7493 56.9282) rotate(90) scale(5.1916 3.31584)">
<stop stop-color="#FD83BD"/>
<stop offset="1" stop-color="#FF4B65"/>
</radialGradient>
<radialGradient id="paint10_radial" cx="0" cy="0" r="1" gradientUnits="userSpaceOnUse" gradientTransform="translate(31.3081 80.3696) rotate(90) scale(5.19152 3.31584)">
<stop stop-color="#FD83BD"/>
<stop offset="1" stop-color="#FF4B65"/>
</radialGradient>
<radialGradient id="paint11_radial" cx="0" cy="0" r="1" gradientUnits="userSpaceOnUse" gradientTransform="translate(59.1414 84.7612) rotate(90) scale(5.1916 3.31583)">
<stop stop-color="#FD83BD"/>
<stop offset="1" stop-color="#FF4B65"/>
</radialGradient>
<clipPath id="clip0">
<rect width="120" height="120" fill="white"/>
</clipPath>
</defs>
</svg>
