<svg width="38" height="38" viewBox="0 0 38 38" fill="none" xmlns="http://www.w3.org/2000/svg">
<g clip-path="url(#clip0)">
<path d="M31.6667 26.3474C31.6667 26.166 31.6502 26.034 31.6172 25.9516C31.5842 25.8691 31.4358 25.733 31.1719 25.5434C30.908 25.3537 30.574 25.1475 30.1699 24.9249C29.7658 24.7022 29.3741 24.4837 28.9948 24.2693C28.6155 24.0549 28.2402 23.8487 27.8691 23.6508C27.498 23.4529 27.263 23.3292 27.1641 23.2797C27.0816 23.2302 26.9249 23.123 26.694 22.9581C26.4631 22.7932 26.2569 22.6695 26.0755 22.587C25.8941 22.5045 25.7209 22.4633 25.556 22.4633C25.3086 22.4633 25.0076 22.6324 24.653 22.9705C24.2984 23.3086 23.9727 23.6797 23.6758 24.0837C23.3789 24.4878 23.0614 24.8589 22.7233 25.197C22.3852 25.5351 22.1089 25.7042 21.8945 25.7042C21.7791 25.7042 21.643 25.6753 21.4863 25.6176C21.3296 25.5599 21.2018 25.5063 21.1029 25.4568C21.0039 25.4073 20.8637 25.329 20.6823 25.2218C20.5009 25.1146 20.3854 25.0445 20.3359 25.0115C18.7031 24.1044 17.3012 23.0612 16.1302 21.8819C14.9592 20.7027 13.9119 19.2966 12.9883 17.6638C12.9553 17.6143 12.8852 17.4989 12.778 17.3175C12.6708 17.136 12.5924 16.9958 12.543 16.8969C12.4935 16.7979 12.4399 16.6701 12.3822 16.5134C12.3244 16.3567 12.2956 16.2207 12.2956 16.1052C12.2956 15.8908 12.4646 15.6146 12.8027 15.2764C13.1408 14.9383 13.5119 14.6208 13.916 14.324C14.3201 14.0271 14.6912 13.7014 15.0293 13.3468C15.3674 12.9922 15.5365 12.6912 15.5365 12.4438C15.5365 12.2788 15.4952 12.1057 15.4128 11.9242C15.3303 11.7428 15.2066 11.5366 15.0417 11.3057C14.8767 11.0748 14.7695 10.9182 14.7201 10.8357C14.6706 10.7367 14.5469 10.5017 14.349 10.1306C14.151 9.75952 13.9449 9.38431 13.7305 9.00496C13.5161 8.62562 13.2975 8.23391 13.0749 7.82983C12.8522 7.42575 12.6461 7.09177 12.4564 6.82788C12.2667 6.56399 12.1306 6.41555 12.0482 6.38257C11.9657 6.34958 11.8338 6.33309 11.6523 6.33309C10.8607 6.33309 10.0278 6.51451 9.15365 6.87736C8.39497 7.22371 7.73524 8.00301 7.17448 9.21525C6.61372 10.4275 6.33333 11.5037 6.33333 12.4438C6.33333 12.7077 6.35395 12.988 6.39518 13.2849C6.43642 13.5818 6.47765 13.8333 6.51888 14.0395C6.56011 14.2456 6.63433 14.5178 6.74154 14.8559C6.84874 15.194 6.93121 15.4373 6.98893 15.5857C7.04666 15.7341 7.14974 16.0063 7.29818 16.4021C7.44661 16.7979 7.53733 17.0453 7.57031 17.1443C8.5599 19.8491 10.3453 22.4922 12.9264 25.0733C15.5076 27.6545 18.1506 29.4399 20.8555 30.4294C20.9544 30.4624 21.2018 30.5531 21.5977 30.7016C21.9935 30.85 22.2656 30.9531 22.4141 31.0108C22.5625 31.0686 22.8058 31.151 23.1439 31.2582C23.482 31.3654 23.7541 31.4396 23.9603 31.4809C24.1665 31.5221 24.418 31.5633 24.7148 31.6046C25.0117 31.6458 25.2921 31.6664 25.556 31.6664C26.4961 31.6664 27.5723 31.386 28.7845 30.8253C29.9967 30.2645 30.776 29.6048 31.1224 28.8461C31.4852 27.972 31.6667 27.1391 31.6667 26.3474ZM38 7.12476V30.8748C38 32.8374 37.3032 34.5156 35.9095 35.9093C34.5158 37.3029 32.8377 37.9998 30.875 37.9998H7.125C5.16233 37.9998 3.48416 37.3029 2.09049 35.9093C0.696832 34.5156 0 32.8374 0 30.8748V7.12476C0 5.16208 0.696832 3.48391 2.09049 2.09025C3.48416 0.696588 5.16233 -0.000244141 7.125 -0.000244141H30.875C32.8377 -0.000244141 34.5158 0.696588 35.9095 2.09025C37.3032 3.48391 38 5.16208 38 7.12476Z" fill="#FF4B65"/>
</g>
<defs>
<clipPath id="clip0">
<rect width="38" height="38" fill="white" transform="translate(0 -0.000244141)"/>
</clipPath>
</defs>
</svg>
