<svg width="38" height="38" viewBox="0 0 38 38" fill="none" xmlns="http://www.w3.org/2000/svg">
<g clip-path="url(#clip0)">
<path d="M19 -0.000244141C8.50651 -0.000244141 0 8.50626 0 18.9998C0 29.4932 8.50651 37.9998 19 37.9998C29.4935 37.9998 38 29.4932 38 18.9998C38 8.50626 29.4935 -0.000244141 19 -0.000244141Z" fill="#40B3E0"/>
<path d="M28.2452 10.9291L24.8514 28.0394C24.8514 28.0394 24.3769 29.226 23.0717 28.6564L15.2404 22.6524L12.3928 21.2761L7.59912 19.6623C7.59912 19.6623 6.86347 19.4014 6.79222 18.8318C6.72097 18.2622 7.62287 17.9538 7.62287 17.9538L26.6787 10.4785C26.6787 10.4785 28.245 9.79032 28.245 10.9294" fill="white"/>
<path d="M14.6386 27.8472C14.6386 27.8472 14.41 27.8258 14.125 26.9239C13.8404 26.0221 12.3927 21.276 12.3927 21.276L23.9022 13.9669C23.9022 13.9669 24.5668 13.5635 24.5431 13.9669C24.5431 13.9669 24.6617 14.0382 24.3056 14.3704C23.9497 14.7027 15.2642 22.5101 15.2642 22.5101" fill="#D2E5F1"/>
<path d="M18.2432 24.9543L15.1457 27.7785C15.1457 27.7785 14.9035 27.9623 14.6387 27.8471L15.2318 22.6013" fill="#B5CFE4"/>
</g>
<defs>
<clipPath id="clip0">
<rect width="38" height="38" fill="white" transform="translate(0 -0.000244141)"/>
</clipPath>
</defs>
</svg>
