<svg width="135" height="88" viewBox="0 0 135 88" fill="none" xmlns="http://www.w3.org/2000/svg">
<g filter="url(#filter0_d)">
<rect x="20" y="10" width="95" height="48" rx="24" fill="white"/>
<path d="M51.4062 34.0781C51.4062 39.5156 49.6875 42.2344 46.25 42.2344C44.5938 42.2344 43.3438 41.5391 42.5 40.1484C41.6562 38.7578 41.2344 36.7344 41.2344 34.0781C41.2344 31.4766 41.6562 29.4883 42.5 28.1133C43.3438 26.7305 44.625 26.0391 46.3438 26.0391C48 26.0391 49.2578 26.7227 50.1172 28.0898C50.9766 29.4492 51.4062 31.4453 51.4062 34.0781ZM49.25 34.0781C49.25 31.5625 49.0117 29.75 48.5352 28.6406C48.0586 27.5312 47.2969 26.9766 46.25 26.9766C45.2344 26.9766 44.5039 27.5 44.0586 28.5469C43.6133 29.5938 43.3906 31.4375 43.3906 34.0781C43.3906 36.7344 43.6172 38.6055 44.0703 39.6914C44.5234 40.7695 45.25 41.3086 46.25 41.3086C47.2812 41.3086 48.0391 40.7422 48.5234 39.6094C49.0078 38.4688 49.25 36.625 49.25 34.0781ZM63.4062 34.0781C63.4062 39.5156 61.6875 42.2344 58.25 42.2344C56.5938 42.2344 55.3438 41.5391 54.5 40.1484C53.6562 38.7578 53.2344 36.7344 53.2344 34.0781C53.2344 31.4766 53.6562 29.4883 54.5 28.1133C55.3438 26.7305 56.625 26.0391 58.3438 26.0391C60 26.0391 61.2578 26.7227 62.1172 28.0898C62.9766 29.4492 63.4062 31.4453 63.4062 34.0781ZM61.25 34.0781C61.25 31.5625 61.0117 29.75 60.5352 28.6406C60.0586 27.5312 59.2969 26.9766 58.25 26.9766C57.2344 26.9766 56.5039 27.5 56.0586 28.5469C55.6133 29.5938 55.3906 31.4375 55.3906 34.0781C55.3906 36.7344 55.6172 38.6055 56.0703 39.6914C56.5234 40.7695 57.25 41.3086 58.25 41.3086C59.2812 41.3086 60.0391 40.7422 60.5234 39.6094C61.0078 38.4688 61.25 36.625 61.25 34.0781ZM69.043 40.9219C69.043 41.3047 68.9062 41.6367 68.6328 41.918C68.3672 42.1992 68.0352 42.3398 67.6367 42.3398C67.2305 42.3398 66.8906 42.1992 66.6172 41.918C66.3516 41.6367 66.2188 41.3047 66.2188 40.9219C66.2188 40.5234 66.3555 40.1875 66.6289 39.9141C66.9023 39.6406 67.2383 39.5039 67.6367 39.5039C68.0273 39.5039 68.3594 39.6406 68.6328 39.9141C68.9062 40.1797 69.043 40.5156 69.043 40.9219ZM69.043 32.1562C69.043 32.5547 68.9062 32.8906 68.6328 33.1641C68.3594 33.4375 68.0273 33.5742 67.6367 33.5742C67.2383 33.5742 66.9023 33.4375 66.6289 33.1641C66.3555 32.8906 66.2188 32.5547 66.2188 32.1562C66.2188 31.7734 66.3516 31.4414 66.6172 31.1602C66.8906 30.8789 67.2305 30.7383 67.6367 30.7383C68.0352 30.7383 68.3672 30.8789 68.6328 31.1602C68.9062 31.4414 69.043 31.7734 69.043 32.1562ZM76.6836 32.8125C78.4961 32.8125 79.8438 33.1836 80.7266 33.9258C81.6172 34.668 82.0625 35.8008 82.0625 37.3242C82.0625 38.9023 81.582 40.1172 80.6211 40.9688C79.6602 41.8125 78.2852 42.2344 76.4961 42.2344C75.0117 42.2344 73.6875 42.0664 72.5234 41.7305L72.3945 38.4258H73.168L73.6953 40.6289C74.0391 40.8164 74.4492 40.9688 74.9258 41.0859C75.4102 41.2031 75.8711 41.2617 76.3086 41.2617C77.543 41.2617 78.4492 40.9727 79.0273 40.3945C79.6133 39.8086 79.9062 38.8242 79.9062 37.4414C79.9062 36.4727 79.7812 35.7422 79.5312 35.25C79.2812 34.75 78.8828 34.3828 78.3359 34.1484C77.7891 33.9141 77.0547 33.7969 76.1328 33.7969C75.4219 33.7969 74.7266 33.8906 74.0469 34.0781H72.9219V26.2852H80.8906V28.0781H73.9766V33.0938C74.8203 32.9062 75.7227 32.8125 76.6836 32.8125ZM83.7734 31.0781C83.7734 29.5 84.2148 28.2773 85.0977 27.4102C85.9805 26.543 87.2266 26.1094 88.8359 26.1094C90.625 26.1094 91.9336 26.7539 92.7617 28.043C93.5977 29.332 94.0156 31.3516 94.0156 34.1016C94.0156 36.7344 93.4805 38.75 92.4102 40.1484C91.3398 41.5391 89.8359 42.2344 87.8984 42.2344C86.625 42.2344 85.457 42.1016 84.3945 41.8359V39.1172H85.1562L85.5664 40.8047C85.8164 40.9219 86.1523 41.0273 86.5742 41.1211C86.9961 41.2148 87.4219 41.2617 87.8516 41.2617C89.1016 41.2617 90.0625 40.7148 90.7344 39.6211C91.4062 38.5195 91.7773 36.9023 91.8477 34.7695C90.6602 35.4336 89.4531 35.7656 88.2266 35.7656C86.8438 35.7656 85.7539 35.3555 84.957 34.5352C84.168 33.707 83.7734 32.5547 83.7734 31.0781ZM88.8594 27.0469C86.9062 27.0469 85.9297 28.4062 85.9297 31.125C85.9297 32.3203 86.1641 33.2031 86.6328 33.7734C87.1016 34.3438 87.8281 34.6289 88.8125 34.6289C89.8203 34.6289 90.8359 34.4219 91.8594 34.0078C91.8594 31.6094 91.6211 29.8516 91.1445 28.7344C90.6758 27.6094 89.9141 27.0469 88.8594 27.0469Z" fill="#FF4B65"/>
</g>
<defs>
<filter id="filter0_d" x="0" y="0" width="135" height="88" filterUnits="userSpaceOnUse" color-interpolation-filters="sRGB">
<feFlood flood-opacity="0" result="BackgroundImageFix"/>
<feColorMatrix in="SourceAlpha" type="matrix" values="0 0 0 0 0 0 0 0 0 0 0 0 0 0 0 0 0 0 127 0"/>
<feOffset dy="10"/>
<feGaussianBlur stdDeviation="10"/>
<feColorMatrix type="matrix" values="0 0 0 0 0 0 0 0 0 0 0 0 0 0 0 0 0 0 0.15 0"/>
<feBlend mode="normal" in2="BackgroundImageFix" result="effect1_dropShadow"/>
<feBlend mode="normal" in="SourceGraphic" in2="effect1_dropShadow" result="shape"/>
</filter>
</defs>
</svg>
