<svg width="24" height="25" viewBox="0 0 24 25" fill="none" xmlns="http://www.w3.org/2000/svg">
<path d="M23.6665 20.4568L20.2828 23.8134C19.7833 24.3257 19.1212 24.4992 18.4765 24.5C15.625 24.4146 12.9298 23.0139 10.7168 21.5757C7.0844 18.9331 3.75148 15.6564 1.65968 11.6966C0.857404 10.0362 -0.0839564 7.91756 0.0059836 6.06419C0.0140036 5.36699 0.201884 4.68273 0.692904 4.23333L4.07662 0.851316C4.77926 0.253657 5.45876 0.460296 5.9084 1.15646L8.63062 6.31849C8.91714 6.93003 8.75278 7.58527 8.3253 8.02224L7.07866 9.26824C7.0017 9.37366 6.9527 9.49366 6.95146 9.62426C7.4295 11.4747 8.87772 13.1802 10.1571 14.354C11.4364 15.5277 12.8116 17.1179 14.5966 17.4944C14.8173 17.5559 15.0875 17.5776 15.2454 17.4308L16.6956 15.956C17.1955 15.5771 17.9173 15.3919 18.451 15.7017H18.4764L23.3866 18.6005C24.1075 19.0524 24.1826 19.9256 23.6665 20.4568Z" fill="white"/>
</svg>
