<svg width="121" height="121" viewBox="0 0 121 121" fill="none" xmlns="http://www.w3.org/2000/svg">
<g opacity="0.5" filter="url(#filter0_d)">
<circle cx="60.5" cy="45.5" r="40.5" fill="white"/>
</g>
<g filter="url(#filter1_d)">
<circle cx="60.5" cy="45.5" r="32.5" fill="white"/>
</g>
<path d="M64.634 31.5972L68.2025 35.5694H76.1V59.4028H44.9V35.5694H52.7975L56.366 31.5972H64.634ZM66.35 27.625H54.65L51.0815 31.5972H44.9C42.755 31.5972 41 33.3847 41 35.5694V59.4028C41 61.5875 42.755 63.375 44.9 63.375H76.1C78.245 63.375 80 61.5875 80 59.4028V35.5694C80 33.3847 78.245 31.5972 76.1 31.5972H69.9185L66.35 27.625ZM60.5 41.5278C63.7175 41.5278 66.35 44.209 66.35 47.4861C66.35 50.7632 63.7175 53.4444 60.5 53.4444C57.2825 53.4444 54.65 50.7632 54.65 47.4861C54.65 44.209 57.2825 41.5278 60.5 41.5278ZM60.5 37.5556C55.118 37.5556 50.75 42.0044 50.75 47.4861C50.75 52.9678 55.118 57.4167 60.5 57.4167C65.882 57.4167 70.25 52.9678 70.25 47.4861C70.25 42.0044 65.882 37.5556 60.5 37.5556Z" fill="url(#paint0_radial)"/>
<defs>
<filter id="filter0_d" x="0" y="0" width="121" height="121" filterUnits="userSpaceOnUse" color-interpolation-filters="sRGB">
<feFlood flood-opacity="0" result="BackgroundImageFix"/>
<feColorMatrix in="SourceAlpha" type="matrix" values="0 0 0 0 0 0 0 0 0 0 0 0 0 0 0 0 0 0 127 0"/>
<feOffset dy="15"/>
<feGaussianBlur stdDeviation="10"/>
<feColorMatrix type="matrix" values="0 0 0 0 0 0 0 0 0 0 0 0 0 0 0 0 0 0 0.05 0"/>
<feBlend mode="normal" in2="BackgroundImageFix" result="effect1_dropShadow"/>
<feBlend mode="normal" in="SourceGraphic" in2="effect1_dropShadow" result="shape"/>
</filter>
<filter id="filter1_d" x="8" y="8" width="105" height="105" filterUnits="userSpaceOnUse" color-interpolation-filters="sRGB">
<feFlood flood-opacity="0" result="BackgroundImageFix"/>
<feColorMatrix in="SourceAlpha" type="matrix" values="0 0 0 0 0 0 0 0 0 0 0 0 0 0 0 0 0 0 127 0"/>
<feOffset dy="15"/>
<feGaussianBlur stdDeviation="10"/>
<feColorMatrix type="matrix" values="0 0 0 0 0 0 0 0 0 0 0 0 0 0 0 0 0 0 0.05 0"/>
<feBlend mode="normal" in2="BackgroundImageFix" result="effect1_dropShadow"/>
<feBlend mode="normal" in="SourceGraphic" in2="effect1_dropShadow" result="shape"/>
</filter>
<radialGradient id="paint0_radial" cx="0" cy="0" r="1" gradientUnits="userSpaceOnUse" gradientTransform="translate(60.5 18.9583) rotate(90) scale(32.3194 22.5194)">
<stop stop-color="#FD83BD"/>
<stop offset="1" stop-color="#FF4B65"/>
</radialGradient>
</defs>
</svg>
