<svg width="38" height="38" viewBox="0 0 38 38" fill="none" xmlns="http://www.w3.org/2000/svg">
<path d="M0 37.9996L2.68807 28.2423C1.03053 25.3803 0.158588 22.1347 0.159774 18.8313C0.159774 8.44725 8.65651 -0.000244141 19.0797 -0.000244141C24.1458 -0.000244141 28.8924 1.96429 32.4639 5.51908C36.0354 9.07404 38 13.8077 38 18.8406C38 29.2246 29.5033 37.6721 19.0799 37.6721H19.0705C15.903 37.6721 12.7919 36.8769 10.0286 35.3802L0 37.9998V37.9996Z" fill="url(#paint0_linear)"/>
<path d="M14.3273 10.3797C13.9773 9.53844 13.6094 9.51901 13.2775 9.50938C13.0084 9.49976 12.6944 9.49976 12.3802 9.49976C12.0663 9.49976 11.5637 9.62544 11.1331 10.1282C10.7023 10.6311 9.5 11.8494 9.5 14.3346C9.5 16.8098 11.1779 19.2078 11.4112 19.5462C11.6444 19.8847 14.6502 25.1351 19.3967 27.156C23.3446 28.8386 24.1522 28.5001 25.0045 28.4131C25.8658 28.3261 27.7681 27.1947 28.1628 26.0151C28.5486 24.8354 28.5486 23.8298 28.4319 23.6171C28.3153 23.4042 28.0013 23.2787 27.5347 23.0272C27.0681 22.7758 24.7712 21.5575 24.3406 21.3835C23.9098 21.2095 23.5958 21.1321 23.2908 21.6348C22.9767 22.1376 22.0795 23.2689 21.8102 23.6075C21.5411 23.9458 21.263 23.9845 20.7963 23.7331C20.3298 23.4818 18.8225 22.9498 17.037 21.2287C15.6463 19.8943 14.7042 18.2408 14.4348 17.7381C14.1657 17.2353 14.408 16.9644 14.6413 16.7132C14.8476 16.4907 15.1078 16.1233 15.3412 15.8332C15.5745 15.5431 15.6552 15.3305 15.8077 14.9919C15.9602 14.6535 15.8884 14.3635 15.7718 14.1121C15.6552 13.8606 14.74 11.3756 14.3273 10.3797Z" fill="white"/>
<defs>
<linearGradient id="paint0_linear" x1="18.9992" y1="37.9971" x2="18.9992" y2="-0.00252495" gradientUnits="userSpaceOnUse">
<stop stop-color="#20B038"/>
<stop offset="1" stop-color="#60D66A"/>
</linearGradient>
</defs>
</svg>
