<svg width="40" height="40" viewBox="0 0 40 40" fill="none" xmlns="http://www.w3.org/2000/svg">
<path d="M34.62 16.927L32.34 10.0853C32.0093 9.08946 31.3731 8.22316 30.5219 7.60951C29.6707 6.99585 28.6477 6.66606 27.5984 6.66699H12.4017C11.3524 6.66606 10.3294 6.99585 9.47818 7.60951C8.62697 8.22316 7.99079 9.08946 7.66004 10.0853L5.38004 16.927C4.7744 17.1811 4.25717 17.6083 3.89312 18.1549C3.52906 18.7016 3.33436 19.3435 3.33337 20.0003V28.3337C3.33337 29.5887 4.03837 30.6703 5.06504 31.2387C5.04337 31.3487 5.00004 31.4487 5.00004 31.5637V35.0003C5.00004 35.4424 5.17564 35.8663 5.4882 36.1788C5.80076 36.4914 6.22468 36.667 6.66671 36.667H8.33337C8.7754 36.667 9.19932 36.4914 9.51189 36.1788C9.82445 35.8663 10 35.4424 10 35.0003V31.667H30V35.0003C30 35.4424 30.1756 35.8663 30.4882 36.1788C30.8008 36.4914 31.2247 36.667 31.6667 36.667H33.3334C33.7754 36.667 34.1993 36.4914 34.5119 36.1788C34.8244 35.8663 35 35.4424 35 35.0003V31.5637C35 31.4487 34.9567 31.347 34.935 31.2387C35.4574 30.9539 35.8937 30.5341 36.1983 30.023C36.5029 29.512 36.6647 28.9286 36.6667 28.3337V20.0003C36.6667 18.6187 35.82 17.432 34.62 16.927ZM6.66671 28.3337V20.0003H33.3334L33.3367 28.3337H6.66671ZM12.4017 10.0003H27.5967C28.315 10.0003 28.9517 10.457 29.1784 11.1403L31.0217 16.667H8.97837L10.82 11.1403C10.9306 10.8083 11.1429 10.5195 11.4268 10.3149C11.7107 10.1103 12.0518 10.0002 12.4017 10.0003Z" fill="white"/>
<path d="M10.8334 26.667C12.2141 26.667 13.3334 25.5477 13.3334 24.167C13.3334 22.7863 12.2141 21.667 10.8334 21.667C9.45266 21.667 8.33337 22.7863 8.33337 24.167C8.33337 25.5477 9.45266 26.667 10.8334 26.667Z" fill="white"/>
<path d="M29.1666 26.667C30.5473 26.667 31.6666 25.5477 31.6666 24.167C31.6666 22.7863 30.5473 21.667 29.1666 21.667C27.7859 21.667 26.6666 22.7863 26.6666 24.167C26.6666 25.5477 27.7859 26.667 29.1666 26.667Z" fill="white"/>
</svg>
