<svg width="54" height="41" viewBox="0 0 54 41" fill="none" xmlns="http://www.w3.org/2000/svg">
<path d="M20.4211 33.7143C20.4211 36.6335 18.0647 39 15.1579 39C12.2512 39 9.89478 36.6335 9.89478 33.7143M20.4211 33.7143C20.4211 30.7951 18.0647 28.4286 15.1579 28.4286C12.2512 28.4286 9.89478 30.7951 9.89478 33.7143M20.4211 33.7143H36.2106M9.89478 33.7143L4.63158 33.7143V23.1429M46.7369 33.7143C46.7369 36.6335 44.3805 39 41.4737 39C38.567 39 36.2106 36.6335 36.2106 33.7143M46.7369 33.7143C46.7369 30.7951 44.3805 28.4286 41.4737 28.4286C38.567 28.4286 36.2106 30.7951 36.2106 33.7143M46.7369 33.7143L52 33.7143V17.8571M2 2H30.9474V33.7143M52 17.8571H30.9474M52 17.8571L44.1053 4.64286H30.9474M4.63159 12.5714H15.1579" stroke="#FF4B65" stroke-width="3" stroke-linecap="round" stroke-linejoin="round"/>
</svg>
