<svg width="120" height="120" viewBox="0 0 120 120" fill="none" xmlns="http://www.w3.org/2000/svg">
<g clip-path="url(#clip0)">
<path d="M117.146 68.3133C115.875 68.077 114.65 68.9163 114.414 70.189C109.551 96.3363 86.6871 115.312 60.0459 115.312H60.0408C29.5411 115.31 4.72523 90.4941 4.72241 59.9944C4.72101 45.2198 10.4733 31.3305 20.9194 20.8842C31.3648 10.4391 45.2508 4.6875 60.0244 4.6875H60.0298C66.0084 4.68797 71.8472 5.62687 77.4387 7.48242C74.535 10.3038 72.7423 14.3655 72.7423 18.9497C72.7423 34.7489 94.4243 45.2487 95.3473 45.6879C95.6623 45.8377 96.0063 45.9152 96.3544 45.9152C96.3778 45.9152 96.4015 45.915 96.4252 45.9143L96.5198 45.9115C96.8456 45.9016 97.1658 45.8238 97.4597 45.6834C97.9547 45.447 104.447 42.2913 110.332 36.9609C112.208 41.0466 113.574 45.3427 114.402 49.7688C114.613 50.8955 115.597 51.6818 116.703 51.6818C116.846 51.6818 116.992 51.6687 117.137 51.6413C118.41 51.4031 119.248 50.1785 119.01 48.9063C118.001 43.5199 116.26 38.3114 113.828 33.4031C117.313 29.373 119.965 24.4868 119.965 18.9497C119.965 10.2319 113.481 3.40266 105.204 3.40266C101.875 3.40266 98.8547 4.48453 96.3532 6.55312C94.3263 4.87992 91.4262 3.40266 87.5037 3.40266C85.707 3.40266 83.9948 3.72445 82.4152 4.31742C75.2995 1.45312 67.7716 0.000703125 60.03 0H60.0241C43.9997 0 28.935 6.23977 17.6048 17.5697C6.27327 28.9015 0.0335061 43.9683 0.0349123 59.9948C0.0363186 76.0212 6.2789 91.0891 17.6123 102.423C28.9458 113.756 44.0137 119.999 60.0403 120H60.0459C88.9423 120 113.747 99.4111 119.022 71.0461C119.259 69.7734 118.419 68.55 117.146 68.3133ZM94.5902 11.3585C95.0395 11.8718 95.6981 12.1587 96.3794 12.1498C97.0526 12.1448 97.6981 11.8418 98.1389 11.3337C98.1588 11.313 98.1785 11.292 98.1975 11.2704C100.08 9.16031 102.438 8.09039 105.204 8.09039C110.853 8.09039 115.278 12.8604 115.278 18.9499C115.278 30.1416 100.36 38.846 96.3952 40.9615C92.4047 38.8472 77.4295 30.1629 77.4295 18.9499C77.4295 12.8604 81.8545 8.09039 87.5037 8.09039C90.3082 8.09039 92.6925 9.18984 94.5902 11.3585Z" fill="url(#paint0_radial)"/>
<path d="M119.377 59.3929C118.993 58.4718 118.042 57.88 117.045 57.9522C116.071 58.0225 115.231 58.7116 114.961 59.6472C114.69 60.5845 115.053 61.6298 115.849 62.1951C116.639 62.7565 117.706 62.7724 118.514 62.2385C119.438 61.6275 119.794 60.4118 119.377 59.3929Z" fill="url(#paint1_radial)"/>
<path d="M74.6653 52.8409L78.7317 48.7745L82.7978 52.8409C83.7131 53.7564 85.1967 53.7564 86.1126 52.8409C87.0278 51.9257 87.0278 50.4416 86.1126 49.5264L80.3892 43.8027C79.9497 43.363 79.3535 43.1162 78.7319 43.1162C78.1103 43.1162 77.5143 43.3632 77.0746 43.8027L71.351 49.5264C70.4357 50.4416 70.4357 51.9257 71.351 52.8411C71.8087 53.2989 72.4085 53.5276 73.0082 53.5276C73.6078 53.5271 74.2073 53.2984 74.6653 52.8409Z" fill="url(#paint2_radial)"/>
<path d="M37.1326 52.8411L41.199 48.7747L45.2654 52.8411C45.7231 53.2988 46.3229 53.5275 46.9226 53.5275C47.5224 53.5275 48.1224 53.2988 48.5799 52.8411C49.4951 51.9258 49.4951 50.4418 48.5799 49.5263L42.8562 43.8026C41.941 42.8874 40.4569 42.8874 39.5417 43.8026L33.818 49.5263C32.9028 50.4415 32.9028 51.9256 33.818 52.8411C34.7333 53.7563 36.2173 53.7563 37.1326 52.8411Z" fill="url(#paint3_radial)"/>
<path d="M24.9402 63.3755V66.1807C24.9402 69.6541 25.4476 73.0854 26.4489 76.3791C26.4547 76.3985 26.461 76.418 26.4674 76.4372C29.135 85.1602 35.0108 92.4042 43.0187 96.8398C43.0206 96.8409 43.0227 96.8421 43.0246 96.843C48.1778 99.6973 54.0357 101.206 59.965 101.206C65.8942 101.206 71.7521 99.697 76.9053 96.843C76.9063 96.8426 76.9072 96.8421 76.9079 96.8414C78.3278 96.0555 79.7075 95.1605 81.01 94.1801C86.897 89.7478 91.3171 83.4487 93.4618 76.4381C93.4684 76.4184 93.4747 76.3987 93.4808 76.3788C94.4821 73.0854 94.9897 69.6541 94.9897 66.1802V63.375C94.9897 62.0805 93.9404 61.0312 92.646 61.0312H27.2839C25.9895 61.0317 24.9402 62.081 24.9402 63.3755ZM59.965 96.5187C55.7307 96.5187 51.5403 95.6316 47.7006 93.9363C50.7674 90.4125 55.1919 88.3709 59.965 88.3709C64.3135 88.3709 68.4041 90.0652 71.4824 93.1411C71.74 93.3987 71.9882 93.6642 72.2272 93.9373C68.3882 95.6318 64.198 96.5187 59.965 96.5187ZM78.1909 90.4355C77.6202 90.8651 77.0324 91.2757 76.4314 91.6648C75.9245 91.0226 75.3784 90.408 74.7962 89.8261C70.8322 85.8649 65.5649 83.6834 59.9647 83.6834C53.4594 83.6834 47.4568 86.6283 43.4982 91.6631C38.4313 88.3716 34.4047 83.5767 32.0382 78.0427H87.8917C85.8125 82.9097 82.4436 87.2339 78.1909 90.4355ZM29.6277 65.7192H90.3022V66.1807C90.3022 68.6114 90.0158 71.017 89.4496 73.3537H30.4803C29.9141 71.0168 29.6277 68.6112 29.6277 66.1807V65.7192Z" fill="url(#paint4_radial)"/>
</g>
<defs>
<radialGradient id="paint0_radial" cx="0" cy="0" r="1" gradientUnits="userSpaceOnUse" gradientTransform="translate(60.0001 -29.0909) rotate(90) scale(108.485 69.2501)">
<stop stop-color="#FD83BD"/>
<stop offset="1" stop-color="#FF4B65"/>
</radialGradient>
<radialGradient id="paint1_radial" cx="0" cy="0" r="1" gradientUnits="userSpaceOnUse" gradientTransform="translate(117.211 56.8114) rotate(90) scale(4.23229 2.7009)">
<stop stop-color="#FD83BD"/>
<stop offset="1" stop-color="#FF4B65"/>
</radialGradient>
<radialGradient id="paint2_radial" cx="0" cy="0" r="1" gradientUnits="userSpaceOnUse" gradientTransform="translate(78.7318 40.5922) rotate(90) scale(9.41233 9.31636)">
<stop stop-color="#FD83BD"/>
<stop offset="1" stop-color="#FF4B65"/>
</radialGradient>
<radialGradient id="paint3_radial" cx="0" cy="0" r="1" gradientUnits="userSpaceOnUse" gradientTransform="translate(41.199 40.5922) rotate(90) scale(9.41227 9.31651)">
<stop stop-color="#FD83BD"/>
<stop offset="1" stop-color="#FF4B65"/>
</radialGradient>
<radialGradient id="paint4_radial" cx="0" cy="0" r="1" gradientUnits="userSpaceOnUse" gradientTransform="translate(59.9649 51.292) rotate(90) scale(36.3193 40.448)">
<stop stop-color="#FD83BD"/>
<stop offset="1" stop-color="#FF4B65"/>
</radialGradient>
<clipPath id="clip0">
<rect width="120" height="120" fill="white"/>
</clipPath>
</defs>
</svg>
