<svg width="1052" height="13" viewBox="0 0 1052 13" fill="none" xmlns="http://www.w3.org/2000/svg">
<path d="M1 6.5C5.375 -0.833333 9.75 -0.833333 14.125 6.5C18.5 13.8333 22.875 13.8333 27.25 6.5C31.625 -0.833333 36 -0.833333 40.375 6.5C44.75 13.8333 49.125 13.8333 53.5 6.5C57.875 -0.833333 62.25 -0.833333 66.625 6.5C71 13.8333 75.375 13.8333 79.75 6.5C84.125 -0.833333 88.5 -0.833333 92.875 6.5C97.25 13.8333 101.625 13.8333 106 6.5C110.375 -0.833333 114.75 -0.833333 119.125 6.5C123.5 13.8333 127.875 13.8333 132.25 6.5C136.625 -0.833333 141 -0.833333 145.375 6.5C149.75 13.8333 154.125 13.8333 158.5 6.5C162.875 -0.833333 167.25 -0.833333 171.625 6.5C176 13.8333 180.375 13.8333 184.75 6.5C189.125 -0.833333 193.5 -0.833333 197.875 6.5C202.25 13.8333 206.625 13.8333 211 6.5C215.375 -0.833333 219.75 -0.833333 224.125 6.5C228.5 13.8333 232.875 13.8333 237.25 6.5C241.625 -0.833333 246 -0.833333 250.375 6.5C254.75 13.8333 259.125 13.8333 263.5 6.5C267.875 -0.833333 272.25 -0.833333 276.625 6.5C281 13.8333 285.375 13.8333 289.75 6.5C294.125 -0.833333 298.5 -0.833333 302.875 6.5C307.25 13.8333 311.625 13.8333 316 6.5C320.375 -0.833333 324.75 -0.833333 329.125 6.5C333.5 13.8333 337.875 13.8333 342.25 6.5C346.625 -0.833333 351 -0.833333 355.375 6.5C359.75 13.8333 364.125 13.8333 368.5 6.5C372.875 -0.833333 377.25 -0.833333 381.625 6.5C386 13.8333 390.375 13.8333 394.75 6.5C399.125 -0.833333 403.5 -0.833333 407.875 6.5C412.25 13.8333 416.625 13.8333 421 6.5C425.375 -0.833333 429.75 -0.833333 434.125 6.5C438.5 13.8333 442.875 13.8333 447.25 6.5C451.625 -0.833333 456 -0.833333 460.375 6.5C464.75 13.8333 469.125 13.8333 473.5 6.5C477.875 -0.833333 482.25 -0.833333 486.625 6.5C491 13.8333 495.375 13.8333 499.75 6.5C504.125 -0.833333 508.5 -0.833333 512.875 6.5C517.25 13.8333 521.625 13.8333 526 6.5C530.375 -0.833333 534.75 -0.833333 539.125 6.5C543.5 13.8333 547.875 13.8333 552.25 6.5C556.625 -0.833333 561 -0.833333 565.375 6.5C569.75 13.8333 574.125 13.8333 578.5 6.5C582.875 -0.833333 587.25 -0.833333 591.625 6.5C596 13.8333 600.375 13.8333 604.75 6.5C609.125 -0.833333 613.5 -0.833333 617.875 6.5C622.25 13.8333 626.625 13.8333 631 6.5C635.375 -0.833333 639.75 -0.833333 644.125 6.5C648.5 13.8333 652.875 13.8333 657.25 6.5C661.625 -0.833333 666 -0.833333 670.375 6.5C674.75 13.8333 679.125 13.8333 683.5 6.5C687.875 -0.833333 692.25 -0.833333 696.625 6.5C701 13.8333 705.375 13.8333 709.75 6.5C714.125 -0.833333 718.5 -0.833333 722.875 6.5C727.25 13.8333 731.625 13.8333 736 6.5C740.375 -0.833333 744.75 -0.833333 749.125 6.5C753.5 13.8333 757.875 13.8333 762.25 6.5C766.625 -0.833333 771 -0.833333 775.375 6.5C779.75 13.8333 784.125 13.8333 788.5 6.5C792.875 -0.833333 797.25 -0.833333 801.625 6.5C806 13.8333 810.375 13.8333 814.75 6.5C819.125 -0.833333 823.5 -0.833333 827.875 6.5C832.25 13.8333 836.625 13.8333 841 6.5C845.375 -0.833333 849.75 -0.833333 854.125 6.5C858.5 13.8333 862.875 13.8333 867.25 6.5C871.625 -0.833333 876 -0.833333 880.375 6.5C884.75 13.8333 889.125 13.8333 893.5 6.5C897.875 -0.833333 902.25 -0.833333 906.625 6.5C911 13.8333 915.375 13.8333 919.75 6.5C924.125 -0.833333 928.5 -0.833333 932.875 6.5C937.25 13.8333 941.625 13.8333 946 6.5C950.375 -0.833333 954.75 -0.833333 959.125 6.5C963.5 13.8333 967.875 13.8333 972.25 6.5C976.625 -0.833333 981 -0.833333 985.375 6.5C989.75 13.8333 994.125 13.8333 998.5 6.5C1002.87 -0.833333 1007.25 -0.833333 1011.62 6.5C1016 13.8333 1020.37 13.8333 1024.75 6.5C1029.12 -0.833333 1033.5 -0.833333 1037.87 6.5C1042.25 13.8333 1046.62 13.8333 1051 6.5" stroke="#CCCCCC" stroke-width="2"/>
</svg>
