<svg width="120" height="120" viewBox="0 0 120 120" fill="none" xmlns="http://www.w3.org/2000/svg">
<g clip-path="url(#clip0)">
<path d="M87.0092 0H45.282C41.7917 0 38.9523 2.83945 38.9523 6.33V54.7291C38.5808 55.2342 37.9625 56.051 37.3573 56.8505C35.1165 59.8109 31.73 64.2851 29.7104 67.4644C25.7279 73.7438 25.651 80.0182 29.4537 88.4452C29.4802 88.504 29.5093 88.5616 29.5407 88.6181C29.5407 88.6181 34.302 97.2291 34.5062 97.6062C35.7083 99.8271 37.7201 103.544 37.5926 106.466C37.5912 106.5 37.5905 106.534 37.5905 106.568V113.498C37.5905 117.083 40.5076 120 44.093 120H65.2721C68.8576 120 71.7746 117.083 71.7746 113.498L71.7547 107.426C71.7559 105.089 72.1093 103.858 72.5562 102.3C72.8616 101.236 73.2073 100.03 73.4555 98.3965C73.4619 98.3543 73.4673 98.3121 73.4712 98.2694C73.8179 94.6709 72.8827 91.1958 71.8927 87.5168C71.3309 85.429 70.7316 83.201 70.3025 80.7366H87.0094C90.4998 80.7366 93.3392 77.8971 93.3392 74.4066V50.895C93.3392 49.6008 92.2897 48.5512 90.9955 48.5512C89.7012 48.5512 88.6517 49.6008 88.6517 50.895V74.4063C88.6517 75.312 87.9148 76.0488 87.0094 76.0488H81.4805V4.6875H87.0092C87.9146 4.6875 88.6515 5.42438 88.6515 6.33V29.8416C88.6515 31.1358 89.701 32.1853 90.9952 32.1853C92.2894 32.1853 93.339 31.1358 93.339 29.8416V6.33C93.339 2.83945 90.4995 0 87.0092 0V0ZM65.2719 115.312H44.0928C43.1089 115.312 42.2778 114.481 42.2778 113.498V106.616C42.4388 102.415 40.0552 98.0109 38.6286 95.3749C38.4333 95.0145 33.687 86.43 33.687 86.43C30.5703 79.4848 30.5673 74.8655 33.668 69.9764C35.0255 67.8394 37.0855 65.0182 38.9523 62.5228V74.4066C38.9523 77.8971 41.7917 80.7366 45.282 80.7366H52.797V88.5574C52.797 89.8516 53.8463 90.9012 55.1408 90.9012C56.4352 90.9012 57.4845 89.8516 57.4845 88.5574V63.8766C57.4845 61.762 59.2046 60.0417 61.3191 60.0417C62.3478 60.0417 63.3183 60.4481 64.0519 61.1862C64.7726 61.9111 65.1664 62.8617 65.1603 63.8625C65.1554 64.6657 65.1432 69.9506 65.0492 72.4034C64.966 74.5727 65.0579 76.5907 65.2573 78.4744C65.262 78.611 65.4439 79.9995 65.5266 80.5432C65.9991 83.6456 66.7252 86.3541 67.366 88.7346C68.2735 92.1073 69.0584 95.0231 68.8109 97.7573C68.6091 99.0591 68.3375 100.006 68.0501 101.007C67.5669 102.692 67.0669 104.434 67.0669 107.438C67.0669 107.446 67.0669 107.455 67.0672 107.463L67.0869 113.497C67.0869 114.481 66.2558 115.312 65.2719 115.312ZM76.793 76.0491H69.7627C69.7025 74.9419 69.8431 64.6875 69.8478 63.8904C69.8612 61.632 68.9834 59.498 67.3761 57.8813C65.7561 56.2516 63.6048 55.3542 61.3189 55.3542C56.6199 55.3542 52.7968 59.1773 52.7968 63.8766V76.0491H45.2818C44.3762 76.0491 43.6395 75.3122 43.6395 74.4066V6.33C43.6395 5.42438 44.3764 4.6875 45.2818 4.6875H76.793V76.0491Z" fill="url(#paint0_radial)"/>
<path d="M90.9951 38.0283C89.7009 38.0283 88.6514 39.0779 88.6514 40.3721V40.3786C88.6514 41.6729 89.7009 42.7191 90.9951 42.7191C92.2893 42.7191 93.3389 41.6663 93.3389 40.3718C93.3389 39.0774 92.2893 38.0283 90.9951 38.0283Z" fill="url(#paint1_radial)"/>
</g>
<defs>
<radialGradient id="paint0_radial" cx="0" cy="0" r="1" gradientUnits="userSpaceOnUse" gradientTransform="translate(60.0002 -29.0909) rotate(90) scale(108.485 38.5011)">
<stop stop-color="#FD83BD"/>
<stop offset="1" stop-color="#FF4B65"/>
</radialGradient>
<radialGradient id="paint1_radial" cx="0" cy="0" r="1" gradientUnits="userSpaceOnUse" gradientTransform="translate(90.9951 36.8912) rotate(90) scale(4.24066 2.70665)">
<stop stop-color="#FD83BD"/>
<stop offset="1" stop-color="#FF4B65"/>
</radialGradient>
<clipPath id="clip0">
<rect width="120" height="120" fill="white"/>
</clipPath>
</defs>
</svg>
