<svg width="327" height="618" viewBox="0 0 327 618" fill="none" xmlns="http://www.w3.org/2000/svg">
<g filter="url(#filter0_f)">
<path d="M112.054 433.347C95.9683 430.253 81.1926 423.242 67.7265 412.312C54.7965 401.485 45.2177 387.689 38.99 370.923C33.2985 354.26 32.3604 336.01 36.1757 316.171C40.4035 294.188 50.8797 277.299 67.6044 265.503C84.9684 253.274 109.292 240.994 140.576 228.662C171.221 216.764 194.215 205.618 209.558 195.224C225.54 184.398 235.439 169.065 239.254 149.227C243.379 127.78 239.863 108.478 228.707 91.3198C217.55 74.1621 199.372 63.16 174.172 58.3135C156.478 54.9106 139.145 56.8592 122.173 64.1592C105.737 71.5624 95.8176 84.1108 92.4147 101.805C90.6618 110.92 91.3112 119.107 94.3632 126.366C97.5183 133.088 100.88 138.739 104.447 143.317C108.551 147.998 110.551 150.607 110.448 151.143C109.726 154.896 105.097 158.732 96.5591 162.65C88.5576 166.671 79.4633 167.702 69.276 165.743C52.6546 162.547 40.436 153.803 32.6204 139.511C25.4441 124.787 23.4542 109.114 26.6509 92.4929C28.0945 84.9865 29.7134 79.4598 31.5076 75.9128C44.5823 48.403 66.5244 32.6067 97.334 28.5239C128.143 24.4411 155.612 24.7198 179.74 29.36C219.953 37.0938 251.711 52.6536 275.014 76.0393C298.316 99.4251 306.307 130.152 298.986 168.221C293.933 194.493 280.972 215.631 260.102 231.633C239.335 247.1 211.98 262.133 178.036 276.733C148.257 289.91 125.325 302.18 109.24 313.543C93.2577 324.369 83.5136 338.897 80.0076 357.127C78.1515 366.778 79.7702 375.708 84.8638 383.915C90.5967 391.69 97.2163 396.299 104.723 397.743C120.808 400.836 138.76 395.671 158.578 382.246C167.528 376.183 176.56 374.028 185.675 375.781C192.645 377.122 198.451 380.184 203.09 384.968C207.73 389.753 209.535 394.826 208.504 400.188C207.576 405.013 204.874 408.942 200.399 411.973C186.438 420.964 171.548 427.553 155.731 431.739C140.017 435.389 125.458 435.925 112.054 433.347ZM69.2092 591.075C54.7325 588.291 43.5966 581.145 35.8016 569.638C28.0066 558.13 25.5527 544.87 28.44 529.858C31.2241 515.381 38.3698 504.245 49.877 496.45C61.9205 488.758 75.1805 486.304 89.6572 489.088C104.67 491.976 116.074 499.173 123.869 510.68C131.664 522.187 134.17 535.179 131.385 549.656C128.498 564.669 121.301 576.073 109.794 583.868C98.2864 591.663 84.7583 594.065 69.2092 591.075Z" fill="url(#paint0_radial)"/>
</g>
<defs>
<filter id="filter0_f" x="0.173096" y="0.657227" width="326.438" height="616.661" filterUnits="userSpaceOnUse" color-interpolation-filters="sRGB">
<feFlood flood-opacity="0" result="BackgroundImageFix"/>
<feBlend mode="normal" in="SourceGraphic" in2="BackgroundImageFix" result="shape"/>
<feGaussianBlur stdDeviation="12.5" result="effect1_foregroundBlur"/>
</filter>
<radialGradient id="paint0_radial" cx="0" cy="0" r="1" gradientUnits="userSpaceOnUse" gradientTransform="translate(273.45 -404.398) rotate(100.886) scale(888.672 205.561)">
<stop stop-color="#FD83BD"/>
<stop offset="1" stop-color="#FF4B65"/>
</radialGradient>
</defs>
</svg>
