<svg width="120" height="120" viewBox="0 0 120 120" fill="none" xmlns="http://www.w3.org/2000/svg">
<path d="M85.7812 92.8125C84.4875 92.8125 83.4375 93.8625 83.4375 95.1562C83.4375 96.45 84.4875 97.5 85.7812 97.5C87.075 97.5 88.125 96.45 88.125 95.1562C88.125 93.8625 87.075 92.8125 85.7812 92.8125Z" fill="url(#paint0_radial)"/>
<path d="M91.552 85.2335L80.4122 81.521L76.413 73.5225C80.0159 69.8555 82.5173 65.0034 83.3609 59.9426L83.8596 56.9531H88.125C92.002 56.9531 95.1562 53.7989 95.1562 49.9219V35.1562C95.1562 15.7711 79.3852 0 60 0C40.5652 0 24.8438 15.7259 24.8438 35.1562V49.9219C24.8438 52.9772 26.8034 55.5825 29.5312 56.55V59.2969C29.5312 63.1739 32.6855 66.3281 36.5625 66.3281H38.6208C39.6368 68.5352 40.9519 70.5795 42.5522 72.4158C42.8841 72.7973 43.2302 73.1672 43.5848 73.527L39.5878 81.521L28.4477 85.2337C15.495 89.5528 6.09375 103.189 6.09375 117.656C6.09375 118.951 7.14305 120 8.4375 120H111.562C112.857 120 113.906 118.951 113.906 117.656C113.906 103.189 104.505 89.5528 91.552 85.2335ZM90.4688 49.9219C90.4688 51.2142 89.4173 52.2656 88.125 52.2656H84.548C85.1438 47.6508 85.5408 42.7399 85.7004 37.9031C85.7051 37.7667 85.7088 37.6341 85.7131 37.5H90.4688V49.9219ZM31.875 52.2656C30.5827 52.2656 29.5312 51.2142 29.5312 49.9219V37.5H34.2886C34.2963 37.7445 34.3045 37.9901 34.3137 38.2373C34.3139 38.2458 34.3144 38.254 34.3146 38.2624C34.3146 38.2631 34.3146 38.2638 34.3146 38.2645C34.4787 42.9689 34.8705 47.7523 35.4527 52.2654H31.875V52.2656ZM36.5625 61.6406C35.2702 61.6406 34.2188 60.5892 34.2188 59.2969V56.9531H36.1402L36.6389 59.9435C36.7341 60.5119 36.851 61.0781 36.9862 61.6406H36.5625ZM34.2227 32.8125H29.6203C30.8074 17.1045 43.9165 4.6875 60 4.6875C76.012 4.6875 89.1787 17.1028 90.3794 32.8125H85.7775C85.6087 19.8687 75.0682 9.375 62.0979 9.375H57.9026C44.9325 9.375 34.3912 19.8687 34.2227 32.8125ZM57.9023 14.0625H62.0977C72.5998 14.0625 81.0998 22.6526 81.0938 33.143C81.0938 33.8805 81.0879 34.5227 81.0755 35.107C81.0755 35.1145 81.0752 35.1223 81.0752 35.13L78.1437 34.7112C70.1796 33.574 62.6599 29.8141 56.9698 24.124C56.5301 23.6845 55.9341 23.4375 55.3125 23.4375C49.0181 23.4375 42.9928 26.3053 39.0098 31.1503C39.9914 21.6068 48.0593 14.0625 57.9023 14.0625ZM41.8453 61.6406C40.672 57.7376 39.3295 46.2532 39.0328 38.8938L42.1873 34.6877C45.0844 30.8262 49.5916 28.4269 54.3862 28.1515C60.6949 34.1552 68.8563 38.1199 77.4809 39.3513L80.9313 39.8445C80.7007 44.7394 80.2294 49.6514 79.5541 54.169C79.5539 54.1704 79.5537 54.172 79.5534 54.1737C79.3388 55.6261 79.1695 56.5608 78.7374 59.1715C77.4961 66.6164 71.9409 73.3488 64.6076 75.1824C61.5895 75.9359 58.41 75.9356 55.3936 75.1824C50.8146 74.0377 46.616 70.8694 43.9064 66.3281H48.6844C49.6519 69.056 52.257 71.0156 55.3125 71.0156H60C63.8848 71.0156 67.0312 67.8694 67.0312 63.9844C67.0312 60.1073 63.877 56.9531 60 56.9531H55.3125C52.189 56.9531 49.6223 58.9706 48.6804 61.6406H41.8453ZM55.1154 79.9256C56.723 80.2643 58.362 80.4375 60 80.4375C61.2823 80.4375 62.5648 80.3302 63.8327 80.122L59.6913 84.5018L55.1154 79.9256ZM56.4691 87.9091L49.0352 95.7705C46.9887 91.8532 45.2302 87.7763 43.7878 83.6025L46.5795 78.0192L56.4691 87.9091ZM73.0233 77.2252L76.2117 83.6023C74.767 87.7831 73.008 91.8614 70.9636 95.7741L63.007 87.8175L73.0233 77.2252ZM52.9688 63.9844C52.9688 62.6904 54.0183 61.6406 55.3125 61.6406H60C61.2923 61.6406 62.3438 62.692 62.3438 63.9844C62.3438 65.2786 61.294 66.3281 60 66.3281H55.3125C54.0202 66.3281 52.9688 65.2767 52.9688 63.9844ZM10.875 115.312C11.8038 103.702 19.5309 93.1484 29.9302 89.6805L39.7959 86.3927C41.6034 91.3908 43.8427 96.2487 46.467 100.863C46.4714 100.871 46.4756 100.879 46.4801 100.887C46.4801 100.887 46.4803 100.887 46.4803 100.887C48.3977 104.26 50.5559 107.555 52.8956 110.684L55.7789 115.312H10.875ZM60 113.223L56.8214 108.12C56.7858 108.063 56.7478 108.007 56.7075 107.954C54.8095 105.422 53.0391 102.774 51.4266 100.064L59.7851 91.2248L68.5924 100.032C66.9691 102.762 65.1926 105.421 63.293 107.953C63.1781 108.106 63.341 107.865 60 113.223ZM64.2211 115.312L67.1041 110.684C69.4542 107.543 71.6278 104.221 73.5645 100.809C73.5762 100.789 73.5872 100.768 73.5989 100.747C73.6003 100.744 73.6017 100.742 73.6031 100.74C76.1941 96.1692 78.4099 91.3535 80.2041 86.3927L90.0696 89.6805C100.469 93.1484 108.196 103.702 109.125 115.312H64.2211Z" fill="url(#paint1_radial)"/>
<path d="M102.081 105.827C100.515 102.692 98.2207 99.9068 95.4464 97.7726C94.4203 96.983 92.9489 97.1749 92.1597 98.201C91.3704 99.2271 91.5623 100.699 92.5882 101.488C94.804 103.192 96.6363 105.417 97.8877 107.922C98.4673 109.082 99.8759 109.549 101.032 108.971C102.19 108.393 102.66 106.985 102.081 105.827Z" fill="url(#paint2_radial)"/>
<defs>
<radialGradient id="paint0_radial" cx="0" cy="0" r="1" gradientUnits="userSpaceOnUse" gradientTransform="translate(85.7812 91.6761) rotate(90) scale(4.23769 2.70665)">
<stop stop-color="#FD83BD"/>
<stop offset="1" stop-color="#FF4B65"/>
</radialGradient>
<radialGradient id="paint1_radial" cx="0" cy="0" r="1" gradientUnits="userSpaceOnUse" gradientTransform="translate(60 -29.0909) rotate(90) scale(108.485 62.253)">
<stop stop-color="#FD83BD"/>
<stop offset="1" stop-color="#FF4B65"/>
</radialGradient>
<radialGradient id="paint2_radial" cx="0" cy="0" r="1" gradientUnits="userSpaceOnUse" gradientTransform="translate(97.0011 94.3933) rotate(90) scale(10.7878 6.15255)">
<stop stop-color="#FD83BD"/>
<stop offset="1" stop-color="#FF4B65"/>
</radialGradient>
</defs>
</svg>
