<svg width="121" height="121" viewBox="0 0 121 121" fill="none" xmlns="http://www.w3.org/2000/svg">
<g opacity="0.5" filter="url(#filter0_d)">
<circle cx="60.5" cy="45.5" r="40.5" fill="white"/>
</g>
<g filter="url(#filter1_d)">
<circle cx="60.5" cy="45.5" r="32.5" fill="white"/>
</g>
<path d="M60.5 24.375C48.852 24.375 39.375 33.852 39.375 45.5C39.375 57.148 48.852 66.625 60.5 66.625C72.148 66.625 81.625 57.148 81.625 45.5C81.625 33.852 72.148 24.375 60.5 24.375ZM60.5 27.625C61.0492 27.625 61.5888 27.6575 62.125 27.7063V29.25H65.375V28.3173C69.3239 29.4449 72.7659 31.8944 75.125 35.256V40.625L76.75 43.875V45.5H78.375C78.375 46.0947 78.3425 46.6846 78.2856 47.2648C78.271 47.4208 78.2385 47.5702 78.2206 47.7246C78.1654 48.152 78.1101 48.5761 78.0256 48.9937C77.9948 49.1497 77.9541 49.3025 77.9184 49.4585C77.8241 49.8713 77.7234 50.2807 77.5999 50.6821C77.5576 50.8202 77.5089 50.9551 77.4634 51.0916C77.3295 51.5043 77.1804 51.9119 77.0165 52.3136C76.9678 52.4306 76.9141 52.5444 76.8638 52.6597C76.6818 53.0741 76.49 53.482 76.2787 53.8785C76.23 53.976 76.1748 54.0686 76.1211 54.1612C75.6148 55.0729 75.0297 55.9385 74.3726 56.7483L74.2264 56.9286C73.9111 57.3073 73.5764 57.6696 73.2335 58.0206C73.1831 58.071 73.136 58.1263 73.084 58.1766C72.7309 58.526 72.3633 58.8605 71.9823 59.1792C71.9286 59.2248 71.8831 59.2719 71.8279 59.3158C71.4476 59.6278 71.0479 59.917 70.6433 60.1981C70.5799 60.242 70.523 60.2924 70.4596 60.3346C70.0696 60.5946 69.6666 60.8335 69.2571 61.0659C67.3122 62.1607 65.178 62.8785 62.9667 63.1816L69.4846 58.2676L71.2721 56.4801L73.5 52V50.375L70.25 48.75H68.625L65.375 45.5H62.125L60.5 47.125V48.75L58.875 50.375V53.625L62.125 56.225L58.9124 63.2954C49.7977 62.4861 42.625 54.8194 42.625 45.5C42.625 39.962 45.1584 35.0041 49.125 31.7216V32.5L47.5 34.125V37.7L49.125 43.875L57.25 47.125H58.875V45.5L54 43.875V40.625H58.875L60.5 36.5625L63.75 34.125V32.5L58.875 29.25L56.5382 28.0816C57.8377 27.7821 59.1665 27.6289 60.5 27.625ZM58.875 42.25V43.875H62.125V42.25H58.875Z" fill="url(#paint0_radial)"/>
<defs>
<filter id="filter0_d" x="0" y="0" width="121" height="121" filterUnits="userSpaceOnUse" color-interpolation-filters="sRGB">
<feFlood flood-opacity="0" result="BackgroundImageFix"/>
<feColorMatrix in="SourceAlpha" type="matrix" values="0 0 0 0 0 0 0 0 0 0 0 0 0 0 0 0 0 0 127 0"/>
<feOffset dy="15"/>
<feGaussianBlur stdDeviation="10"/>
<feColorMatrix type="matrix" values="0 0 0 0 0 0 0 0 0 0 0 0 0 0 0 0 0 0 0.05 0"/>
<feBlend mode="normal" in2="BackgroundImageFix" result="effect1_dropShadow"/>
<feBlend mode="normal" in="SourceGraphic" in2="effect1_dropShadow" result="shape"/>
</filter>
<filter id="filter1_d" x="8" y="8" width="105" height="105" filterUnits="userSpaceOnUse" color-interpolation-filters="sRGB">
<feFlood flood-opacity="0" result="BackgroundImageFix"/>
<feColorMatrix in="SourceAlpha" type="matrix" values="0 0 0 0 0 0 0 0 0 0 0 0 0 0 0 0 0 0 127 0"/>
<feOffset dy="15"/>
<feGaussianBlur stdDeviation="10"/>
<feColorMatrix type="matrix" values="0 0 0 0 0 0 0 0 0 0 0 0 0 0 0 0 0 0 0.05 0"/>
<feBlend mode="normal" in2="BackgroundImageFix" result="effect1_dropShadow"/>
<feBlend mode="normal" in="SourceGraphic" in2="effect1_dropShadow" result="shape"/>
</filter>
<radialGradient id="paint0_radial" cx="0" cy="0" r="1" gradientUnits="userSpaceOnUse" gradientTransform="translate(60.5 14.1326) rotate(90) scale(38.1957 24.396)">
<stop stop-color="#FD83BD"/>
<stop offset="1" stop-color="#FF4B65"/>
</radialGradient>
</defs>
</svg>
