<svg width="50" height="50" viewBox="0 0 50 50" fill="none" xmlns="http://www.w3.org/2000/svg">
<path d="M23.9582 14.9362C23.8183 15.0753 23.7071 15.2406 23.6311 15.4227C23.5551 15.6047 23.5158 15.8 23.5154 15.9973C23.515 16.1946 23.5536 16.3901 23.6288 16.5724C23.7041 16.7548 23.8146 16.9206 23.954 17.0602L30.3815 23.5112L16.0031 23.4823C15.6052 23.4815 15.2234 23.6388 14.9415 23.9195C14.6597 24.2003 14.5009 24.5815 14.5001 24.9793C14.4993 25.3771 14.6565 25.759 14.9373 26.0408C15.218 26.3227 15.5992 26.4815 15.997 26.4823L30.3754 26.5112L23.9221 32.9362C23.7824 33.0754 23.6714 33.2407 23.5956 33.4228C23.5197 33.6048 23.4805 33.8001 23.4801 33.9973C23.4797 34.1945 23.5181 34.3899 23.5932 34.5723C23.6684 34.7546 23.7787 34.9204 23.9178 35.0602C24.057 35.1999 24.2224 35.3109 24.4044 35.3867C24.5865 35.4626 24.7817 35.5018 24.979 35.5022C25.1762 35.5026 25.3716 35.4641 25.5539 35.389C25.7363 35.3139 25.9021 35.2036 26.0418 35.0644L35.0599 26.0825C35.1999 25.9435 35.311 25.7782 35.387 25.5961C35.463 25.414 35.5023 25.2187 35.5027 25.0214C35.5031 24.8241 35.4646 24.6287 35.3893 24.4463C35.3141 24.2639 35.2036 24.0981 35.0641 23.9585L26.0822 14.9405C25.9432 14.8005 25.7779 14.6893 25.5958 14.6134C25.4137 14.5374 25.2184 14.4981 25.0211 14.4977C24.8238 14.4973 24.6284 14.5358 24.446 14.611C24.2636 14.6863 24.0979 14.7968 23.9582 14.9362Z" fill="#FF4B65"/>
<path fill-rule="evenodd" clip-rule="evenodd" d="M25.0482 1.00043C31.4134 1.01321 37.5128 3.55403 42.0046 8.06392C46.4965 12.5738 49.0128 18.6834 49 25.0486C48.9872 31.4138 46.4464 37.5132 41.9365 42.005C37.4266 46.4968 31.317 49.0131 24.9519 49.0003C18.5867 48.9876 12.4873 46.4467 7.99544 41.9368C3.50361 37.4269 0.98731 31.3174 1.00009 24.9522C1.01287 18.587 3.55369 12.4876 8.06359 7.99578C12.5735 3.50395 18.683 0.987652 25.0482 1.00043ZM25.0422 4.00043C30.6117 4.01161 35.9487 6.23482 39.8791 10.181C43.8094 14.1271 46.0112 19.473 46 25.0425C45.9888 30.6121 43.7656 35.9491 39.8194 39.8794C35.8733 43.8098 30.5274 46.0115 24.9579 46.0003C19.3883 45.9892 14.0514 43.7659 10.121 39.8198C6.19067 35.8736 3.9889 30.5278 4.00008 24.9582C4.01127 19.3887 6.23448 14.0517 10.1806 10.1214C14.1268 6.19101 19.4727 3.98924 25.0422 4.00043Z" fill="#FF4B65"/>
</svg>
