<svg width="206" height="359" viewBox="0 0 206 359" fill="none" xmlns="http://www.w3.org/2000/svg">
<g filter="url(#filter0_f)">
<path d="M138.833 244.467C130.126 246.21 121.273 245.718 112.275 242.991C103.567 240.206 95.9324 235.244 89.3715 228.105C83.1007 220.908 78.8905 211.94 76.7407 201.201C74.3585 189.301 76.1561 178.678 82.1336 169.331C88.3433 159.635 98.0357 148.488 111.211 135.888C124.154 123.637 133.411 113.332 138.982 104.972C144.786 96.2629 146.613 86.5392 144.463 75.8002C142.139 64.1906 136.419 55.2228 127.304 48.897C118.189 42.5711 106.811 40.7736 93.1697 43.5044C83.5917 45.4218 75.2913 49.9512 68.2685 57.0927C61.5359 64.176 59.1283 72.5067 61.0457 82.0846C62.0335 87.0187 64.0369 90.9948 67.0561 94.0129C70.0171 96.7408 72.862 98.8881 75.5906 100.455C78.6095 101.964 80.148 102.863 80.2061 103.153C80.6128 105.185 79.075 108.059 75.5927 111.775C72.4005 115.433 68.0472 117.813 62.5326 118.917C53.5351 120.719 45.6109 118.833 38.76 113.262C32.1412 107.342 27.9312 99.883 26.13 90.8855C25.3166 86.8221 24.9967 83.7165 25.1705 81.5686C26.0963 65.0821 33.8729 52.658 48.5001 44.2961C63.1273 35.9342 76.9713 30.446 90.0322 27.8314C111.8 23.4737 130.928 24.7764 147.416 31.7395C163.903 38.7026 174.21 52.4877 178.335 73.0948C181.182 87.3167 179.007 100.582 171.811 112.89C164.557 124.907 153.907 138.058 139.862 152.34C127.615 165.056 118.619 175.913 112.874 184.912C107.071 193.62 105.157 202.909 107.132 212.777C108.178 218.001 110.82 222.151 115.058 225.227C119.529 227.955 123.795 228.912 127.859 228.098C136.566 226.355 144.518 220.084 151.714 209.286C154.964 204.409 159.056 201.477 163.99 200.489C167.763 199.734 171.305 200.081 174.614 201.532C177.923 202.983 179.868 205.159 180.449 208.062C180.972 210.674 180.421 213.199 178.796 215.637C173.631 223.011 167.507 229.368 160.426 234.71C153.287 239.762 146.089 243.014 138.833 244.467ZM149.646 332.411C141.81 333.98 134.757 332.675 128.486 328.496C122.216 324.318 118.268 318.165 116.641 310.039C115.072 302.202 116.377 295.149 120.555 288.878C125.024 282.55 131.177 278.602 139.013 277.033C147.14 275.406 154.339 276.682 160.609 280.86C166.879 285.039 170.798 291.046 172.367 298.883C173.994 307.01 172.718 314.208 168.54 320.478C164.361 326.748 158.063 330.726 149.646 332.411Z" fill="url(#paint0_radial)"/>
</g>
<defs>
<filter id="filter0_f" x="0.124634" y="0.31543" width="205.515" height="357.738" filterUnits="userSpaceOnUse" color-interpolation-filters="sRGB">
<feFlood flood-opacity="0" result="BackgroundImageFix"/>
<feBlend mode="normal" in="SourceGraphic" in2="BackgroundImageFix" result="shape"/>
<feGaussianBlur stdDeviation="12.5" result="effect1_foregroundBlur"/>
</filter>
<radialGradient id="paint0_radial" cx="0" cy="0" r="1" gradientUnits="userSpaceOnUse" gradientTransform="translate(48.2593 -208.756) rotate(78.6798) scale(481.854 111.442)">
<stop stop-color="#FD83BD"/>
<stop offset="1" stop-color="#FF4B65"/>
</radialGradient>
</defs>
</svg>
