<svg width="20" height="40" viewBox="0 0 20 40" fill="none" xmlns="http://www.w3.org/2000/svg">
<path d="M17.1618 39.9948C17.8238 39.9961 18.4654 39.7642 18.9751 39.3392C19.262 39.0998 19.4991 38.8059 19.6729 38.4742C19.8467 38.1425 19.9538 37.7796 19.988 37.4062C20.0222 37.0328 19.9829 36.6563 19.8723 36.2982C19.7617 35.9402 19.5819 35.6076 19.3434 35.3195L6.65082 20.0391L18.8901 4.73019C19.1254 4.43859 19.3012 4.10305 19.4072 3.74288C19.5133 3.38271 19.5475 3.005 19.508 2.63146C19.4685 2.25793 19.3561 1.89592 19.1771 1.56626C18.9981 1.23661 18.7561 0.945788 18.4651 0.710531C18.172 0.451002 17.8287 0.255244 17.4568 0.13554C17.0849 0.0158371 16.6924 -0.0252253 16.304 0.0149282C15.9156 0.0550817 15.5397 0.175585 15.1997 0.368876C14.8598 0.562167 14.5633 0.824072 14.3287 1.13815L0.644508 18.2431C0.227802 18.7532 0 19.393 0 20.0534C0 20.7137 0.227802 21.3535 0.644508 21.8636L14.8103 38.9685C15.0945 39.3135 15.4556 39.5863 15.8642 39.7646C16.2727 39.9429 16.7173 40.0218 17.1618 39.9948Z" fill="white"/>
</svg>
